<svg xmlns="http://www.w3.org/2000/svg" xmlns:xlink="http://www.w3.org/1999/xlink" width="150.16" height="91.001" viewBox="0 0 150.16 91.001"><defs><style>.a{fill:#252f3e;}.b{fill:#f90;fill-rule:evenodd;}.c{filter:url(#e);}.d{filter:url(#c);}.e{filter:url(#a);}</style><filter id="a" x="6.085" y="0" width="137.987" height="49.007" filterUnits="userSpaceOnUse"><feOffset dy="1" input="SourceAlpha"/><feGaussianBlur stdDeviation="0.5" result="b"/><feFlood flood-color="#404040" flood-opacity="0.161"/><feComposite operator="in" in2="b"/><feComposite in="SourceGraphic"/></filter><filter id="c" x="0" y="57.775" width="137.214" height="33.226" filterUnits="userSpaceOnUse"><feOffset dy="1" input="SourceAlpha"/><feGaussianBlur stdDeviation="0.5" result="d"/><feFlood flood-color="#404040" flood-opacity="0.161"/><feComposite operator="in" in2="d"/><feComposite in="SourceGraphic"/></filter><filter id="e" x="119.579" y="54.862" width="30.581" height="30.169" filterUnits="userSpaceOnUse"><feOffset dy="1" input="SourceAlpha"/><feGaussianBlur stdDeviation="0.5" result="f"/><feFlood flood-color="#404040" flood-opacity="0.161"/><feComposite operator="in" in2="f"/><feComposite in="SourceGraphic"/></filter></defs><g transform="translate(-0.168 -0.6)"><g class="e" transform="matrix(1, 0, 0, 1, 0.17, 0.6)"><path class="a" d="M49.486,33.06a14.809,14.809,0,0,0,.538,4.356,26.2,26.2,0,0,0,1.566,3.524,2.129,2.129,0,0,1,.343,1.126A1.938,1.938,0,0,1,51,43.534L47.92,45.59a2.347,2.347,0,0,1-1.273.44,2.252,2.252,0,0,1-1.468-.685,15.142,15.142,0,0,1-1.762-2.3c-.489-.832-.979-1.762-1.517-2.888a18.081,18.081,0,0,1-14.39,6.754c-4.111,0-7.391-1.175-9.789-3.524a12.573,12.573,0,0,1-3.622-9.4,12.6,12.6,0,0,1,4.454-10.082c2.986-2.545,6.95-3.818,11.991-3.818a38.752,38.752,0,0,1,5.188.392c1.811.245,3.671.636,5.629,1.077V17.986c0-3.72-.783-6.314-2.3-7.831C37.5,8.637,34.852,7.9,31.084,7.9a22.269,22.269,0,0,0-5.286.636A39,39,0,0,0,20.512,10.2a14.043,14.043,0,0,1-1.713.636,3,3,0,0,1-.783.147c-.685,0-1.028-.489-1.028-1.517v-2.4a3.1,3.1,0,0,1,.343-1.713A3.665,3.665,0,0,1,18.7,4.33a28.178,28.178,0,0,1,6.167-2.2A29.674,29.674,0,0,1,32.5,1.2c5.824,0,10.082,1.321,12.823,3.964,2.692,2.643,4.062,6.656,4.062,12.04V33.06ZM29.615,40.5a15.862,15.862,0,0,0,5.041-.881,10.907,10.907,0,0,0,4.65-3.132,7.769,7.769,0,0,0,1.664-3.132A17.571,17.571,0,0,0,41.46,29.1V27.04a40.875,40.875,0,0,0-4.5-.832,36.88,36.88,0,0,0-4.6-.294c-3.279,0-5.677.636-7.293,1.958a6.822,6.822,0,0,0-2.4,5.629,6.832,6.832,0,0,0,1.811,5.188A6.787,6.787,0,0,0,29.615,40.5Zm39.3,5.286a2.732,2.732,0,0,1-1.86-.489,3.989,3.989,0,0,1-1.028-1.909L54.528,5.554a8.573,8.573,0,0,1-.44-1.958,1.074,1.074,0,0,1,1.175-1.224h4.8a2.713,2.713,0,0,1,1.909.489,4,4,0,0,1,.979,1.909l8.223,32.4L78.8,4.771a3.433,3.433,0,0,1,.93-1.909,3.367,3.367,0,0,1,1.958-.489h3.916a2.945,2.945,0,0,1,1.958.489,3.3,3.3,0,0,1,.93,1.909l7.733,32.792L104.7,4.771a4.2,4.2,0,0,1,.979-1.909,3.193,3.193,0,0,1,1.909-.489h4.552A1.088,1.088,0,0,1,113.358,3.6a4.881,4.881,0,0,1-.1.783,6.964,6.964,0,0,1-.343,1.224l-11.8,37.834a3.753,3.753,0,0,1-1.028,1.909,3.131,3.131,0,0,1-1.86.489H94.025a2.945,2.945,0,0,1-1.958-.489,3.47,3.47,0,0,1-.93-1.958L83.551,11.819l-7.537,31.52a3.82,3.82,0,0,1-.93,1.958,3.034,3.034,0,0,1-1.958.489Zm62.893,1.321a32.389,32.389,0,0,1-7.537-.881,22.265,22.265,0,0,1-5.629-1.958,3.526,3.526,0,0,1-1.517-1.37,3.455,3.455,0,0,1-.294-1.37v-2.5c0-1.028.392-1.517,1.126-1.517a2.771,2.771,0,0,1,.881.147c.294.1.734.294,1.224.489a26.622,26.622,0,0,0,5.384,1.713,29.393,29.393,0,0,0,5.824.587,13.205,13.205,0,0,0,7.146-1.615,5.271,5.271,0,0,0,2.545-4.65,4.766,4.766,0,0,0-1.321-3.426,12.28,12.28,0,0,0-4.943-2.545l-7.1-2.2c-3.573-1.126-6.216-2.79-7.831-4.992a11.661,11.661,0,0,1-2.447-7.1,10.893,10.893,0,0,1,1.321-5.433,12.585,12.585,0,0,1,3.524-4.013,15.534,15.534,0,0,1,5.09-2.545,21.332,21.332,0,0,1,6.167-.832,24.57,24.57,0,0,1,3.279.2c1.126.147,2.154.343,3.181.538.979.245,1.909.489,2.79.783a10.682,10.682,0,0,1,2.056.881A4.232,4.232,0,0,1,146.2,4.722a2.638,2.638,0,0,1,.44,1.615v2.3c0,1.028-.392,1.566-1.126,1.566a5.091,5.091,0,0,1-1.86-.587,22.391,22.391,0,0,0-9.4-1.909,12.633,12.633,0,0,0-6.51,1.37,4.726,4.726,0,0,0-2.3,4.356,4.622,4.622,0,0,0,1.468,3.475A14.62,14.62,0,0,0,132.3,19.6l6.95,2.2c3.524,1.126,6.069,2.692,7.586,4.7a11.075,11.075,0,0,1,2.251,6.852,12.583,12.583,0,0,1-1.273,5.677,13.163,13.163,0,0,1-3.573,4.307,15.777,15.777,0,0,1-5.433,2.741A23.274,23.274,0,0,1,131.81,47.107Z" transform="translate(-6.52 -0.6)"/></g><g transform="translate(1.668 55.962)"><g class="d" transform="matrix(1, 0, 0, 1, -1.5, -55.36)"><path class="b" d="M134.713,131.162c-16.1,11.893-39.5,18.207-59.614,18.207A107.848,107.848,0,0,1,2.32,121.618c-1.517-1.37-.147-3.23,1.664-2.154A146.776,146.776,0,0,0,76.813,138.8a145.332,145.332,0,0,0,55.551-11.355C135.056,126.219,137.356,129.2,134.713,131.162Z" transform="translate(-0.17 -60.87)"/></g><g class="c" transform="matrix(1, 0, 0, 1, -1.5, -55.36)"><path class="b" d="M266.158,120.489c-2.056-2.643-13.606-1.273-18.843-.636-1.566.2-1.811-1.175-.392-2.2,9.2-6.461,24.325-4.6,26.087-2.447,1.762,2.2-.489,17.326-9.1,24.57-1.321,1.126-2.594.538-2.007-.93C263.858,134,268.214,123.083,266.158,120.489Z" transform="translate(-124.91 -57.83)"/></g></g></g></svg>