<svg xmlns="http://www.w3.org/2000/svg" xmlns:xlink="http://www.w3.org/1999/xlink" width="98.821" height="98.499" viewBox="0 0 98.821 98.499"><defs><style>.a{fill:#f9eae2;}.b{fill:#f5dbcc;}.c{fill:#ecb784;}.d{fill:#407093;}.e{fill:#365e7d;}.f{fill:#05345d;}.g{fill:#ddb7a0;}.h{fill:#d6a889;}.i{fill:#cc9675;}.j{fill:#c4845c;}.k{fill:#0f4c81;}.l{filter:url(#w);}.m{filter:url(#u);}.n{filter:url(#s);}.o{filter:url(#q);}.p{filter:url(#o);}.q{filter:url(#m);}.r{filter:url(#k);}.s{filter:url(#i);}.t{filter:url(#g);}.u{filter:url(#e);}.v{filter:url(#c);}.w{filter:url(#a);}</style><filter id="a" x="12.293" y="49.51" width="61.24" height="45.887" filterUnits="userSpaceOnUse"><feOffset dy="1" input="SourceAlpha"/><feGaussianBlur stdDeviation="0.5" result="b"/><feFlood flood-color="#404040" flood-opacity="0.161"/><feComposite operator="in" in2="b"/><feComposite in="SourceGraphic"/></filter><filter id="c" x="40.939" y="71.02" width="38.03" height="27.479" filterUnits="userSpaceOnUse"><feOffset dy="1" input="SourceAlpha"/><feGaussianBlur stdDeviation="0.5" result="d"/><feFlood flood-color="#404040" flood-opacity="0.161"/><feComposite operator="in" in2="d"/><feComposite in="SourceGraphic"/></filter><filter id="e" x="44.729" y="50.65" width="41.799" height="28.084" filterUnits="userSpaceOnUse"><feOffset dy="1" input="SourceAlpha"/><feGaussianBlur stdDeviation="0.5" result="f"/><feFlood flood-color="#404040" flood-opacity="0.161"/><feComposite operator="in" in2="f"/><feComposite in="SourceGraphic"/></filter><filter id="g" x="18.295" y="72.896" width="12.348" height="13.158" filterUnits="userSpaceOnUse"><feOffset dy="1" input="SourceAlpha"/><feGaussianBlur stdDeviation="0.5" result="h"/><feFlood flood-color="#404040" flood-opacity="0.161"/><feComposite operator="in" in2="h"/><feComposite in="SourceGraphic"/></filter><filter id="i" x="24.212" y="73.974" width="14.625" height="16.33" filterUnits="userSpaceOnUse"><feOffset dy="1" input="SourceAlpha"/><feGaussianBlur stdDeviation="0.5" result="j"/><feFlood flood-color="#404040" flood-opacity="0.161"/><feComposite operator="in" in2="j"/><feComposite in="SourceGraphic"/></filter><filter id="k" x="30.129" y="78.222" width="14.624" height="16.33" filterUnits="userSpaceOnUse"><feOffset dy="1" input="SourceAlpha"/><feGaussianBlur stdDeviation="0.5" result="l"/><feFlood flood-color="#404040" flood-opacity="0.161"/><feComposite operator="in" in2="l"/><feComposite in="SourceGraphic"/></filter><filter id="m" x="37.014" y="85.156" width="11.728" height="12.294" filterUnits="userSpaceOnUse"><feOffset dy="1" input="SourceAlpha"/><feGaussianBlur stdDeviation="0.5" result="n"/><feFlood flood-color="#404040" flood-opacity="0.161"/><feComposite operator="in" in2="n"/><feComposite in="SourceGraphic"/></filter><filter id="o" x="65.901" y="39.394" width="21.688" height="34.551" filterUnits="userSpaceOnUse"><feOffset dy="1" input="SourceAlpha"/><feGaussianBlur stdDeviation="0.5" result="p"/><feFlood flood-color="#404040" flood-opacity="0.161"/><feComposite operator="in" in2="p"/><feComposite in="SourceGraphic"/></filter><filter id="q" x="76.558" y="33.311" width="22.264" height="44.439" filterUnits="userSpaceOnUse"><feOffset dy="1" input="SourceAlpha"/><feGaussianBlur stdDeviation="0.5" result="r"/><feFlood flood-color="#404040" flood-opacity="0.161"/><feComposite operator="in" in2="r"/><feComposite in="SourceGraphic"/></filter><filter id="s" x="0" y="33.311" width="32.92" height="44.439" filterUnits="userSpaceOnUse"><feOffset dy="1" input="SourceAlpha"/><feGaussianBlur stdDeviation="0.5" result="t"/><feFlood flood-color="#404040" flood-opacity="0.161"/><feComposite operator="in" in2="t"/><feComposite in="SourceGraphic"/></filter><filter id="u" x="27.338" y="12.284" width="33.057" height="26.448" filterUnits="userSpaceOnUse"><feOffset dy="1" input="SourceAlpha"/><feGaussianBlur stdDeviation="0.5" result="v"/><feFlood flood-color="#404040" flood-opacity="0.161"/><feComposite operator="in" in2="v"/><feComposite in="SourceGraphic"/></filter><filter id="w" x="52.289" y="12.284" width="19.195" height="26.448" filterUnits="userSpaceOnUse"><feOffset dy="1" input="SourceAlpha"/><feGaussianBlur stdDeviation="0.5" result="x"/><feFlood flood-color="#404040" flood-opacity="0.161"/><feComposite operator="in" in2="x"/><feComposite in="SourceGraphic"/></filter></defs><g transform="translate(1.026)"><g transform="translate(0.474 0)"><g transform="translate(12.293 50.01)"><g class="w" transform="matrix(1, 0, 0, 1, -13.79, -50.01)"><path class="a" d="M124.277,291.02l-19.024-11.266a2.447,2.447,0,0,1-.858-3.353l1.16-1.958-4.587-2.713c-3.026-1.736-4.441-2.058-7.171-1l-2.975,1.15a6.334,6.334,0,0,1-5.512-.458l-7.963-4.7-11.31,19.091,10.2,6.018a6.333,6.333,0,0,1,1.788,1.582l3.436,4.456a39.532,39.532,0,0,0,8.327,6.588l7.856,4.654a3.562,3.562,0,0,0,4.021-.267Z" transform="translate(-52.24 -216.71)"/></g><g class="v" transform="matrix(1, 0, 0, 1, -13.79, -50.01)"><path class="b" d="M252.059,386.392l-8.3-4.915a.22.22,0,0,0-.3.3,3.741,3.741,0,0,1-.113,4.014,3.635,3.635,0,0,1-4.861,1.024l-1.241-.735a.539.539,0,0,0-.772.673,4.46,4.46,0,0,1-.141,3.347,2.891,2.891,0,0,1-4.251,1.39l-.539-.319a1.019,1.019,0,0,0-1.168.09.438.438,0,0,0-.44.6,3.743,3.743,0,0,1-.409,3,3.816,3.816,0,0,1-5.194,1.217l-1.463-.867a.647.647,0,0,0-.84.159.639.639,0,0,0-.116.552,3.748,3.748,0,0,1-3.1,4.646l8.141,4.823a3.7,3.7,0,0,0,5-1.12,3.643,3.643,0,0,0-1.208-5.1l4.022,2.383a3.7,3.7,0,0,0,5-1.12,3.643,3.643,0,0,0-1.208-5.1l2.731,1.618A3.643,3.643,0,0,0,245,390.68l3.268,1.936a3.7,3.7,0,0,0,5-1.12A3.643,3.643,0,0,0,252.059,386.392Z" transform="translate(-176.38 -309.93)"/></g><g transform="translate(32.436 1.14)"><g class="u" transform="matrix(1, 0, 0, 1, -46.23, -51.15)"><path class="c" d="M266.519,272.805,260.4,276.36a6.334,6.334,0,0,1-5.512.458l-3.355-1.318a5.393,5.393,0,0,0-3.295-.209l-5.141,1.3a5.393,5.393,0,0,0-4.07,5.228v6.863a1.76,1.76,0,0,0,1.757,1.76,5.3,5.3,0,0,0,5.3-5.3v-.291l22.005,13.031a6.329,6.329,0,0,1,1.389-1.114l8.35-4.878Z" transform="translate(-192.8 -221.65)"/></g></g><g transform="translate(6.002 23.387)"><g class="t" transform="matrix(1, 0, 0, 1, -19.79, -73.4)"><path class="c" d="M106.711,397.22l-2.063,2.874a3.642,3.642,0,0,1-5.917-4.248l2.063-2.874a3.642,3.642,0,0,1,5.917,4.248Z" transform="translate(-78.25 -318.06)"/></g><g class="s" transform="matrix(1, 0, 0, 1, -19.79, -73.4)"><path class="c" d="M140.546,402.962l-4.34,6.045a3.642,3.642,0,0,1-5.917-4.248l4.34-6.045a3.642,3.642,0,0,1,5.917,4.248Z" transform="translate(-103.89 -322.72)"/></g><g class="r" transform="matrix(1, 0, 0, 1, -19.79, -73.4)"><path class="c" d="M172.1,425.618l-4.34,6.045a3.642,3.642,0,1,1-5.917-4.248l4.34-6.045a3.642,3.642,0,1,1,5.917,4.248Z" transform="translate(-129.54 -341.13)"/></g><g class="q" transform="matrix(1, 0, 0, 1, -19.79, -73.4)"><path class="c" d="M205.93,462.6l-1.443,2.01a3.642,3.642,0,0,1-5.917-4.248l1.443-2.01a3.642,3.642,0,0,1,5.917,4.248Z" transform="translate(-159.37 -371.18)"/></g></g></g><g transform="translate(0 33.81)"><g transform="translate(65.901 6.083)"><g class="p" transform="matrix(1, 0, 0, 1, -67.4, -39.89)"><path class="d" d="M363.667,243.856a14.284,14.284,0,0,0,6.971-12.27V214.445l-1.06-1.676-16.124,9.611a3.08,3.08,0,0,0-1.073,4.215l10.5,17.725Z" transform="translate(-284.55 -172.88)"/></g><path class="d" d="M428.317,400.979a3.076,3.076,0,0,0,1.266,0C429.19,400.991,428.763,400.992,428.317,400.979Z" transform="translate(-413.998 -365.687)"/></g><g class="o" transform="matrix(1, 0, 0, 1, -1.5, -33.81)"><path class="e" d="M415.757,186.408v18.817a14.285,14.285,0,0,1-6.971,12.27l1.634,2.759a3.08,3.08,0,0,0,4.226,1.076l11.325-6.75a4.259,4.259,0,0,0,2.078-3.659V181.967a1.64,1.64,0,0,0-2.48-1.409Z" transform="translate(-330.73 -146.51)"/></g><g transform="translate(0 0)"><g class="n" transform="matrix(1, 0, 0, 1, -1.5, -33.81)"><path class="d" d="M2.953,180.558l25.937,15.46a3.08,3.08,0,0,1,1.073,4.215L18.1,220.253a3.08,3.08,0,0,1-4.226,1.076l-11.325-6.75A4.259,4.259,0,0,1,.474,210.92V181.967a1.64,1.64,0,0,1,2.479-1.409Z" transform="translate(1.03 -146.51)"/></g></g></g><g transform="translate(27.338)"><g transform="translate(11.978)"><path class="f" d="M225.9,11.157a1.446,1.446,0,0,1-1.446-1.446V4.776a1.885,1.885,0,0,0-1.883-1.884h-7.64a1.886,1.886,0,0,0-1.883,1.884V9.711a1.446,1.446,0,0,1-2.892,0V4.776A4.781,4.781,0,0,1,214.934,0h7.64a4.781,4.781,0,0,1,4.775,4.776V9.711A1.446,1.446,0,0,1,225.9,11.157Z" transform="translate(-210.159 0)"/></g><g transform="translate(0 8.513)"><g class="m" transform="matrix(1, 0, 0, 1, -28.84, -8.51)"><path class="g" d="M153.52,75.423a7.243,7.243,0,0,1-7.243-7.243V87.631a4,4,0,0,0,4,4h22.062a4,4,0,0,0,4-4V75.423Z" transform="translate(-117.44 -55.4)"/></g><g transform="translate(0)"><g class="l" transform="matrix(1, 0, 0, 1, -28.84, -8.51)"><path class="h" d="M288.3,75.423h-4.954V87.631a4,4,0,0,1-4,4h12.2a4,4,0,0,0,4-4V68.18A7.243,7.243,0,0,1,288.3,75.423Z" transform="translate(-225.56 -55.4)"/></g><path class="i" d="M172.349,45.4H150.275a4,4,0,0,0-4,4v1.711a7.243,7.243,0,0,0,7.243,7.243h22.825V49.4A4,4,0,0,0,172.349,45.4Z" transform="translate(-146.278 -45.403)"/><path class="j" d="M283.347,49.4v8.954H288.3a7.243,7.243,0,0,0,7.243-7.243V49.4a4,4,0,0,0-4-4h-12.2a4,4,0,0,1,4,4Z" transform="translate(-254.399 -45.402)"/></g></g><g transform="translate(8.375 16.982)"><path class="k" d="M192.391,99.536a1.446,1.446,0,0,1-1.446-1.446V92.017a1.446,1.446,0,1,1,2.892,0V98.09A1.446,1.446,0,0,1,192.391,99.536Z" transform="translate(-190.945 -90.571)"/><g transform="translate(21.503)"><path class="k" d="M307.077,99.536a1.446,1.446,0,0,1-1.446-1.446V92.017a1.446,1.446,0,0,1,2.892,0V98.09A1.446,1.446,0,0,1,307.077,99.536Z" transform="translate(-305.631 -90.571)"/></g></g></g></g></g></svg>