<svg xmlns="http://www.w3.org/2000/svg" xmlns:xlink="http://www.w3.org/1999/xlink" width="132.769" height="115.208" viewBox="0 0 132.769 115.208"><defs><style>.a{fill:#e8e7e8;}.b{fill:#fdfeff;}.c{fill:#656d7a;}.d{fill:#0f4c81;}.e{fill:#d2d2d4;}.f{fill:#f1592f;}.g{fill:#f5ea07;}.h{fill:#70b1e1;}.i{fill:#9e6eb5;}.j{fill:#4d5ba5;}.k{fill:#c778bd;}.l{filter:url(#c);}.m{filter:url(#a);}</style><filter id="a" x="0" y="69.048" width="132.769" height="46.161" filterUnits="userSpaceOnUse"><feOffset dy="3" input="SourceAlpha"/><feGaussianBlur stdDeviation="3" result="b"/><feFlood flood-opacity="0.161"/><feComposite operator="in" in2="b"/><feComposite in="SourceGraphic"/></filter><filter id="c" x="8.453" y="0" width="115.762" height="84.047" filterUnits="userSpaceOnUse"><feOffset input="SourceAlpha"/><feGaussianBlur stdDeviation="3" result="d"/><feFlood flood-opacity="0.161"/><feComposite operator="in" in2="d"/><feComposite in="SourceGraphic"/></filter></defs><g transform="translate(-37.716 -114.96)"><path class="a" d="M161.488,394.613l-.01,2.075a3.015,3.015,0,0,1-3.023,2.843H49.745a3.016,3.016,0,0,1-3.023-2.843l-.01-2.075H47.2L54.564,373.4a3.01,3.01,0,0,1,2.853-2.026h93.365a3.01,3.01,0,0,1,2.853,2.026L161,394.613Z" transform="translate(0 -179.573)"/><g class="m" transform="matrix(1, 0, 0, 1, 37.72, 114.96)"><path class="b" d="M161.324,388.973l-7.679-22.114a3.023,3.023,0,0,0-2.856-2.031H57.43a3.023,3.023,0,0,0-2.856,2.031l-7.679,22.114a3.024,3.024,0,0,0,2.856,4.015H158.467A3.024,3.024,0,0,0,161.324,388.973Z" transform="translate(-37.72 -289.78)"/></g><g class="l" transform="matrix(1, 0, 0, 1, 37.72, 114.96)"><path class="c" d="M172.29,123.96H80.576a3.024,3.024,0,0,0-3.024,3.024v60a3.024,3.024,0,0,0,3.024,3.024H172.29a3.024,3.024,0,0,0,3.024-3.024v-60A3.024,3.024,0,0,0,172.29,123.96Z" transform="translate(-60.1 -114.96)"/></g><rect class="d" width="87.176" height="50.105" transform="translate(60.457 134.611)"/><rect class="e" width="87.176" height="5.359" transform="translate(60.457 129.251)"/><g transform="translate(75.533 130.509)"><rect class="b" width="56.868" height="2.843" transform="translate(0 0)"/><rect class="b" width="3.743" height="2.843" transform="translate(59.168 0)"/><rect class="b" width="3.743" height="2.843" transform="translate(65.245 0)"/></g><g transform="translate(54.558 193.834)"><path class="e" d="M173.7,390.832H75.324l3.49-12.048h91.392Z" transform="translate(-75.324 -378.784)"/><path class="e" d="M234.078,437.5H207.456l1.174-5.969H232.9Z" transform="translate(-171.225 -417.071)"/></g><circle class="f" cx="1.421" cy="1.421" r="1.421" transform="translate(61.867 130.512)"/><circle class="g" cx="1.421" cy="1.421" r="1.421" transform="translate(65.884 130.512)"/><circle class="h" cx="1.421" cy="1.421" r="1.421" transform="translate(69.905 130.512)"/><rect class="b" width="1.336" height="42.205" transform="translate(68.267 138.559)"/><rect class="i" width="7.061" height="1.336" transform="translate(71.686 143.519)"/><rect class="b" width="11.163" height="1.336" transform="translate(73.433 146.614)"/><rect class="j" width="11.163" height="1.336" transform="translate(93.636 146.614)"/><rect class="k" width="6.107" height="1.336" transform="translate(86.063 146.614)"/><rect class="j" width="19.962" height="1.336" transform="translate(73.433 149.713)"/><rect class="i" width="8.34" height="1.336" transform="translate(101.38 149.713)"/><rect class="b" width="7.189" height="1.336" transform="translate(73.433 152.806)"/><rect class="k" width="15.073" height="1.336" transform="translate(81.879 152.806)"/><g transform="translate(71.579 155.9)"><rect class="i" width="7.189" height="1.336" transform="translate(18.811)"/><rect class="i" width="7.885" height="1.336" transform="translate(0 6.19)"/></g><rect class="j" width="10.257" height="1.336" transform="translate(73.433 165.19)"/><rect class="b" width="9.981" height="1.336" transform="translate(73.433 168.283)"/><rect class="k" width="16.463" height="1.336" transform="translate(84.924 168.283)"/><rect class="j" width="2.955" height="1.336" transform="translate(102.966 168.283)"/><rect class="k" width="5.086" height="1.336" transform="translate(73.433 171.376)"/><rect class="i" width="5.086" height="1.336" transform="translate(71.803 174.469)"/><rect class="j" width="23.311" height="1.336" transform="translate(79.47 171.376)"/><g transform="translate(73.433 155.9)"><rect class="b" width="5.977" height="1.336" transform="translate(37.27 9.29)"/><rect class="b" width="24.04" height="1.336" transform="translate(11.833 9.29)"/><rect class="b" width="15.641" height="1.336" transform="translate(25.786)"/><rect class="b" width="15.641" height="1.336" transform="translate(0)"/></g><rect class="k" width="15.641" height="1.336" transform="translate(73.433 158.995)"/><rect class="j" width="13.913" height="1.336" transform="translate(89.918 158.995)"/><g transform="translate(64.724 140.184)"><rect class="b" width="5.106" height="1.336" transform="translate(30.169 9.529)"/><rect class="b" width="3.34" height="1.336" transform="translate(15.487 3.334)"/><rect class="b" width="1.635" height="1.635" transform="translate(0)"/><rect class="b" width="1.635" height="1.635" transform="translate(0 3.392)"/><rect class="b" width="1.635" height="1.635" transform="translate(0 6.786)"/><rect class="b" width="1.635" height="1.635" transform="translate(0 10.176)"/><rect class="b" width="1.635" height="1.635" transform="translate(0 13.576)"/><rect class="b" width="1.635" height="1.635" transform="translate(0 16.966)"/><rect class="b" width="1.635" height="1.635" transform="translate(0 20.355)"/><rect class="b" width="1.635" height="1.635" transform="translate(0 23.755)"/><rect class="b" width="1.635" height="1.635" transform="translate(0 27.144)"/><rect class="b" width="1.635" height="1.635" transform="translate(0 30.533)"/><rect class="b" width="1.635" height="1.635" transform="translate(0 33.934)"/><rect class="b" width="1.635" height="1.635" transform="translate(0 37.323)"/></g></g></svg>