<svg xmlns="http://www.w3.org/2000/svg" xmlns:xlink="http://www.w3.org/1999/xlink" width="108.331" height="99.001" viewBox="0 0 108.331 99.001"><defs><style>.a{fill:#7364a8;}.b{fill:#9e6eb5;}.c{fill:#fff;}.d{filter:url(#c);}.e{filter:url(#a);}</style><filter id="a" x="0" y="0" width="69.93" height="64.767" filterUnits="userSpaceOnUse"><feOffset dy="1" input="SourceAlpha"/><feGaussianBlur stdDeviation="0.5" result="b"/><feFlood flood-color="#404040" flood-opacity="0.161"/><feComposite operator="in" in2="b"/><feComposite in="SourceGraphic"/></filter><filter id="c" x="38.401" y="34.235" width="69.931" height="64.767" filterUnits="userSpaceOnUse"><feOffset dy="1" input="SourceAlpha"/><feGaussianBlur stdDeviation="0.5" result="d"/><feFlood flood-color="#404040" flood-opacity="0.161"/><feComposite operator="in" in2="d"/><feComposite in="SourceGraphic"/></filter></defs><g transform="translate(-62.585 -81.217)"><g class="e" transform="matrix(1, 0, 0, 1, 62.59, 81.22)"><path class="a" d="M120.69,81.717H74.5A10.417,10.417,0,0,0,64.085,92.132v31.155A10.417,10.417,0,0,0,74.5,133.7h3.351l7.517,9.781,7.517-9.781H120.6a10.417,10.417,0,0,0,10.415-10.415V92.132A10.283,10.283,0,0,0,120.69,81.717Z" transform="translate(-62.59 -81.22)"/></g><g class="d" transform="matrix(1, 0, 0, 1, 62.59, 81.22)"><path class="b" d="M264.457,209.886H218.267A10.417,10.417,0,0,0,207.852,220.3v31.155a10.417,10.417,0,0,0,10.415,10.415h3.351l7.517,9.781,7.517-9.781h27.714a10.417,10.417,0,0,0,10.415-10.415V220.3A10.283,10.283,0,0,0,264.457,209.886Z" transform="translate(-167.95 -175.15)"/></g><g transform="translate(112.991 137.325)"><circle class="c" cx="6.159" cy="6.159" r="6.159" transform="translate(0 0)"/><circle class="c" cx="6.159" cy="6.159" r="6.159" transform="translate(16.846 0)"/><circle class="c" cx="6.159" cy="6.159" r="6.159" transform="translate(33.691 0)"/></g></g></svg>