<svg xmlns="http://www.w3.org/2000/svg" width="231.111" height="80" viewBox="0 0 231.111 80"><defs><style>.a{fill-rule:evenodd;}</style></defs><path class="a" d="M35.245,5H47.891V62.961a83.641,83.641,0,0,1-16.406,1.707C16.04,64.652,8,57.752,8,44.5c0-12.769,8.528-21.056,21.744-21.056a20.569,20.569,0,0,1,5.5.645V5Zm0,29.165a12.734,12.734,0,0,0-4.264-.645c-6.4,0-10.091,3.9-10.091,10.739,0,6.657,3.532,10.333,10.009,10.333a29.845,29.845,0,0,0,4.346-.321V34.165Zm32.746-9.835v29.02c0,9.994-.749,14.8-2.946,18.944-2.051,3.984-4.752,6.5-10.335,9.27l-11.735-5.53c5.582-2.594,8.284-4.887,10.009-8.385,1.807-3.578,2.376-7.721,2.376-18.62v-24.7ZM55.361,5.064H68.008V17.914H55.361Zm20.261,22.12a38.439,38.439,0,0,1,16.749-3.74c6.494,0,10.756,1.709,12.646,5.046,1.058,1.87,1.4,4.3,1.4,9.512V63.443a141.677,141.677,0,0,1-18.051,1.385c-10.6,0-15.348-3.66-15.348-11.784,0-8.787,6.316-12.849,21.825-14.141V36.146c0-2.273-1.156-3.1-4.346-3.1a33.48,33.48,0,0,0-14.859,3.821ZM95.414,47.093c-8.366.806-11.084,2.114-11.084,5.369,0,2.438,1.562,3.581,5.013,3.581a35.383,35.383,0,0,0,6.069-.564V47.093ZM112.57,26.281a76.441,76.441,0,0,1,19.854-2.838c6.478,0,11.167,1.467,13.948,4.3,2.619,2.676,3.452,5.611,3.452,11.866V64.169H137.176V40.114c0-4.8-1.644-6.594-6.151-6.594a18.9,18.9,0,0,0-5.827.9V64.17H112.57ZM154.739,71a28.964,28.964,0,0,0,13.541,3.323c8.284,0,11.816-3.337,11.816-11.3v-.242a17.557,17.557,0,0,1-8.2,1.711c-11.082,0-18.129-7.239-18.129-18.7,0-14.236,10.433-22.281,28.889-22.281a80.1,80.1,0,0,1,16.5,1.79l-4.329,9.028c-3.366-.645-.277-.1-2.814-.339V35.3l.163,5.288.08,6.836c.083,1.711.083,3.416.166,5.127v3.416c0,10.737-.913,15.769-3.615,19.929C184.865,81.984,178.047,85,168.36,85a36.332,36.332,0,0,1-13.621-2.438V71Zm25.113-37.4h-1.32a13.887,13.887,0,0,0-7.308,1.79c-3.026,1.709-4.586,4.8-4.586,9.19,0,6.254,3.125,9.835,8.707,9.835a15.755,15.755,0,0,0,4.752-.806V49.288c0-1.467-.083-3.1-.083-4.8l-.08-5.772-.083-4.143Zm38.915-10.318c12.63,0,20.344,7.884,20.344,20.653,0,13.091-8.038,21.3-20.85,21.3-12.646,0-20.444-7.882-20.444-20.569C197.838,31.489,205.877,23.283,218.767,23.283Zm-.26,31.856c4.85,0,7.715-3.981,7.715-10.9,0-6.836-2.785-10.9-7.632-10.9-5.013,0-7.881,3.982-7.881,10.9s2.882,10.9,7.8,10.9Zm0,0" transform="translate(-8 -5)"/></svg>