<svg xmlns="http://www.w3.org/2000/svg" xmlns:xlink="http://www.w3.org/1999/xlink" width="80.605" height="91.001" viewBox="0 0 80.605 91.001"><defs><style>.a{fill:#e44d26;}.b{fill:#f16529;}.c{fill:#ebebeb;}.d{fill:#fff;}.e{filter:url(#a);}</style><filter id="a" x="0" y="0" width="80.605" height="91.001" filterUnits="userSpaceOnUse"><feOffset dy="1" input="SourceAlpha"/><feGaussianBlur stdDeviation="0.5" result="b"/><feFlood flood-color="#404040" flood-opacity="0.161"/><feComposite operator="in" in2="b"/><feComposite in="SourceGraphic"/></filter></defs><g transform="translate(-73.1 -19.934)"><g class="e" transform="matrix(1, 0, 0, 1, 73.1, 19.93)"><path class="a" d="M81.659,179.831,74.6,100.6h77.605l-7.059,79.188L113.338,188.6" transform="translate(-73.1 -100.1)"/></g><path class="b" d="M256,205.76V131h31.722l-6.054,67.594" transform="translate(-142.597 -104.064)"/><path class="c" d="M142,176.3h24.385v9.711H152.653l.9,9.947h12.834v9.69H144.652m.428,4.877h9.754l.685,7.765,10.866,2.909v10.139l-19.936-5.562" transform="translate(-52.983 -139.674)"/><path class="d" d="M280.143,176.3H255.8v9.711h23.444m-.877,9.947H255.8v9.711h11.979l-1.134,12.62L255.8,221.2v10.1l19.893-5.519" transform="translate(-142.44 -139.674)"/></g></svg>