<svg xmlns="http://www.w3.org/2000/svg" width="101.024" height="103.999" viewBox="0 0 101.024 103.999"><defs><style>.a{fill:#ff2d20;fill-rule:evenodd;}</style></defs><path class="a" d="M100.967,23.528a1.646,1.646,0,0,1,.057.425V46.276a1.628,1.628,0,0,1-.818,1.412L81.47,58.475V79.856a1.632,1.632,0,0,1-.814,1.412l-39.11,22.514a1.749,1.749,0,0,1-.285.118c-.037.012-.071.035-.11.045a1.638,1.638,0,0,1-.834,0c-.045-.012-.085-.037-.128-.053a1.693,1.693,0,0,1-.269-.11L.818,81.268A1.63,1.63,0,0,1,0,79.856V12.887a1.664,1.664,0,0,1,.057-.427c.012-.047.041-.09.057-.136a1.6,1.6,0,0,1,.1-.252,1.522,1.522,0,0,1,.112-.144,1.658,1.658,0,0,1,.144-.189,1.589,1.589,0,0,1,.161-.122,1.327,1.327,0,0,1,.179-.14h0L20.368.218A1.632,1.632,0,0,1,22,.218L41.548,11.475h0a2,2,0,0,1,.179.138,1.925,1.925,0,0,1,.159.122,1.9,1.9,0,0,1,.146.191,1.5,1.5,0,0,1,.11.144,1.7,1.7,0,0,1,.106.252c.016.047.045.09.057.138a1.646,1.646,0,0,1,.057.425V54.715l16.293-9.381V23.951a1.645,1.645,0,0,1,.057-.423c.014-.049.041-.092.057-.138a1.835,1.835,0,0,1,.106-.252c.031-.053.075-.1.11-.144a1.674,1.674,0,0,1,.146-.189,1.563,1.563,0,0,1,.159-.122,1.643,1.643,0,0,1,.179-.14h0L79.028,11.284a1.63,1.63,0,0,1,1.628,0l19.552,11.257a1.8,1.8,0,0,1,.183.138c.051.041.11.077.157.122a1.9,1.9,0,0,1,.146.191,1.228,1.228,0,0,1,.11.144,1.614,1.614,0,0,1,.106.252,1.165,1.165,0,0,1,.057.138Zm-3.2,21.806V26.771L90.922,30.71,81.47,36.152V54.715l16.3-9.381ZM78.213,78.914V60.339l-9.3,5.31L42.364,80.8v18.75L78.213,78.914ZM3.259,15.7v63.21L39.1,99.551V80.8l-18.726-10.6-.006,0-.008,0a76.49,76.49,0,0,0-.33-.252l0-.006a1.55,1.55,0,0,1-.134-.171,1.738,1.738,0,0,1-.122-.159l0-.006a1.3,1.3,0,0,1-.085-.2,1.2,1.2,0,0,1-.077-.183v0a1.558,1.558,0,0,1-.033-.238,1.412,1.412,0,0,1-.024-.183V25.086L10.1,19.642,3.259,15.707Zm17.924-12.2L4.893,12.887,21.18,22.264l16.289-9.379L21.18,3.509Zm8.472,58.522,9.451-5.44V15.7l-6.842,3.939-9.453,5.442V65.973l6.844-3.941ZM79.842,14.575,63.554,23.953,79.842,33.33l16.287-9.379L79.842,14.575Zm-1.63,21.577L68.76,30.71l-6.842-3.939V45.334l9.451,5.44,6.844,3.941V36.152ZM40.732,77.985l23.892-13.64,11.943-6.816L60.29,48.158,41.55,58.947,24.47,68.78l16.262,9.2Z" transform="translate(0 0)"/></svg>