<svg xmlns="http://www.w3.org/2000/svg" xmlns:xlink="http://www.w3.org/1999/xlink" width="205.997" height="204.998" viewBox="0 0 205.997 204.998"><defs><style>.a{fill:#bd99ce;}.b{fill:#9e6eb5;}.c{fill:#f1f1fb;}.d{fill:#d7d6fb;}.e{fill:#2d6698;}.f{fill:#6474af;}.g{fill:#c778bd;}.h{fill:#ef84c0;}.i{fill:#475897;}.j{fill:#0f4c81;}.k{fill:#d396cb;}.l{filter:url(#m);}.m{filter:url(#k);}.n{filter:url(#i);}.o{filter:url(#g);}.p{filter:url(#e);}.q{filter:url(#c);}.r{filter:url(#a);}</style><filter id="a" x="0" y="50.654" width="93.471" height="69.391" filterUnits="userSpaceOnUse"><feOffset dy="2" input="SourceAlpha"/><feGaussianBlur stdDeviation="1" result="b"/><feFlood flood-color="#404040" flood-opacity="0.161"/><feComposite operator="in" in2="b"/><feComposite in="SourceGraphic"/></filter><filter id="c" x="84.954" y="111.527" width="69.39" height="93.47" filterUnits="userSpaceOnUse"><feOffset dy="2" input="SourceAlpha"/><feGaussianBlur stdDeviation="1" result="d"/><feFlood flood-color="#404040" flood-opacity="0.161"/><feComposite operator="in" in2="d"/><feComposite in="SourceGraphic"/></filter><filter id="e" x="57.146" y="2.227" width="148.851" height="166.833" filterUnits="userSpaceOnUse"><feOffset dy="2" input="SourceAlpha"/><feGaussianBlur stdDeviation="1" result="f"/><feFlood flood-color="#404040" flood-opacity="0.161"/><feComposite operator="in" in2="f"/><feComposite in="SourceGraphic"/></filter><filter id="g" x="0.119" y="132.968" width="36.848" height="36.849" filterUnits="userSpaceOnUse"><feOffset dy="2" input="SourceAlpha"/><feGaussianBlur stdDeviation="1" result="h"/><feFlood flood-color="#404040" flood-opacity="0.161"/><feComposite operator="in" in2="h"/><feComposite in="SourceGraphic"/></filter><filter id="i" x="0.001" y="150.5" width="54.497" height="54.496" filterUnits="userSpaceOnUse"><feOffset dy="2" input="SourceAlpha"/><feGaussianBlur stdDeviation="1" result="j"/><feFlood flood-color="#404040" flood-opacity="0.161"/><feComposite operator="in" in2="j"/><feComposite in="SourceGraphic"/></filter><filter id="k" x="35.181" y="168.031" width="36.848" height="36.848" filterUnits="userSpaceOnUse"><feOffset dy="2" input="SourceAlpha"/><feGaussianBlur stdDeviation="1" result="l"/><feFlood flood-color="#404040" flood-opacity="0.161"/><feComposite operator="in" in2="l"/><feComposite in="SourceGraphic"/></filter><filter id="m" x="3.217" y="152.715" width="49.781" height="49.781" filterUnits="userSpaceOnUse"><feOffset dy="1" input="SourceAlpha"/><feGaussianBlur stdDeviation="0.5" result="n"/><feFlood flood-color="#404040" flood-opacity="0.161"/><feComposite operator="in" in2="n"/><feComposite in="SourceGraphic"/></filter></defs><g transform="translate(3 0)"><g class="r" transform="matrix(1, 0, 0, 1, -3, 0)"><path class="a" d="M86.639,135.084a5.865,5.865,0,0,0-5.478-2.832l-47.614,3.678a15.462,15.462,0,0,0-11.782,6.933L1.783,173.086a10.71,10.71,0,0,0,7.294,16.49l38.609,5.98a5.854,5.854,0,0,0,5.834-2.634L86.549,141.25A5.86,5.86,0,0,0,86.639,135.084Z" transform="translate(3 -80.58)"/></g><g class="q" transform="matrix(1, 0, 0, 1, -3, 0)"><path class="b" d="M278.027,288.906a5.86,5.86,0,0,0-6.166.09L220.19,322.026a5.86,5.86,0,0,0-2.635,5.834l5.98,38.609a10.7,10.7,0,0,0,16.491,7.295l30.223-19.982A15.458,15.458,0,0,0,277.181,342l3.678-47.614a5.859,5.859,0,0,0-2.832-5.478Z" transform="translate(-129.53 -175.55)"/></g><path class="c" d="M131.4,161.043a10.221,10.221,0,0,0,8.9,2.879c47.7-7.976,85.444-47.469,99.814-75.25,15.956-30.849,16.547-63.448,15.713-78.737a10.27,10.27,0,0,0-9.7-9.7C230.839-.6,198.24-.009,167.391,15.947c-27.781,14.37-67.274,52.115-75.25,99.814a10.222,10.222,0,0,0,2.879,8.9Z" transform="translate(-56.065 0)"/><g class="p" transform="matrix(1, 0, 0, 1, -3, 0)"><path class="d" d="M285.922,8.261,146.3,147.885l18.192,18.192a10.222,10.222,0,0,0,8.9,2.879c47.7-7.976,85.444-47.469,99.814-75.25,15.956-30.849,16.547-63.448,15.713-78.737a10.254,10.254,0,0,0-2.993-6.708Z" transform="translate(-86.15 -5.03)"/></g><path class="e" d="M305.027,144.873a29.273,29.273,0,1,1,20.715-8.567A29.2,29.2,0,0,1,305.027,144.873ZM288.454,99.018h0Z" transform="translate(-168.025 -52.595)"/><path class="f" d="M92.141,250.2a10.222,10.222,0,0,0,2.879,8.9L131.4,295.484a10.222,10.222,0,0,0,8.9,2.879,117.118,117.118,0,0,0,29.584-9.239L101.38,220.618A117.12,117.12,0,0,0,92.141,250.2Z" transform="translate(-56.065 -134.441)"/><g class="o" transform="matrix(1, 0, 0, 1, -3, 0)"><path class="g" d="M6.164,373.813a5.84,5.84,0,0,0,4.143-1.716l19.13-19.13a5.859,5.859,0,0,0-8.286-8.286L2.021,363.81a5.859,5.859,0,0,0,4.143,10Z" transform="translate(2.81 -209)"/></g><g class="n" transform="matrix(1, 0, 0, 1, -3, 0)"><path class="g" d="M46.784,389.563a5.86,5.86,0,0,0-8.286,0L1.72,426.341a5.859,5.859,0,1,0,8.286,8.286l36.778-36.778a5.859,5.859,0,0,0,0-8.286Z" transform="translate(3 -236.35)"/></g><g class="m" transform="matrix(1, 0, 0, 1, -3, 0)"><path class="h" d="M119.2,434.444a5.86,5.86,0,0,0-8.286,0L91.783,453.573a5.859,5.859,0,1,0,8.286,8.286l19.13-19.13A5.859,5.859,0,0,0,119.2,434.444Z" transform="translate(-51.89 -263.7)"/></g><g class="l" transform="matrix(1, 0, 0, 1, -3, 0)"><path class="h" d="M4.4,437.3a5.859,5.859,0,0,0,8.286,0l36.778-36.778a5.859,5.859,0,0,0,0-8.286Z" transform="translate(0.32 -239.02)"/></g><path class="i" d="M146.3,330.728,164.49,348.92a10.222,10.222,0,0,0,8.9,2.879,117.123,117.123,0,0,0,29.584-9.239l-34.253-34.253Z" transform="translate(-89.151 -187.877)"/><path class="j" d="M297.7,149.671a29.3,29.3,0,0,0,41.431-41.431Z" transform="translate(-181.412 -65.96)"/><path class="k" d="M323.308,116.295a17.563,17.563,0,1,0,12.43,5.14,17.522,17.522,0,0,0-12.43-5.14Z" transform="translate(-186.307 -70.868)"/><path class="g" d="M343.769,129.454l-24.858,24.858a17.578,17.578,0,0,0,24.858-24.858Z" transform="translate(-194.339 -78.887)"/></g></svg>