<svg xmlns="http://www.w3.org/2000/svg" xmlns:xlink="http://www.w3.org/1999/xlink" width="381.015" height="28.002" viewBox="0 0 381.015 28.002">
	<defs>
		<linearGradient id="a" y1="0.497" x2="0.99" y2="0.503" gradientUnits="objectBoundingBox">
			<stop offset="0" stop-color="#0f4c81" />
			<stop offset="0.504" stop-color="#475897" />
			<stop offset="1" stop-color="#7364a8" />
		</linearGradient>
	</defs>
	<path fill="url(#a)" d="M256.019,149.183c8.311,0,14.076,5.69,14.076,14a14.19,14.19,0,0,1-14.076,14c-8.311,0-14.15-5.69-14.15-14A14.156,14.156,0,0,1,256.019,149.183Zm-41.082.374v3.893h-13.7a3.893,3.893,0,1,0,0,7.787h8.236a7.469,7.469,0,0,1,7.786,7.787,7.729,7.729,0,0,1-7.786,7.787H193.449v-3.893h15.573a3.893,3.893,0,1,0,0-7.786h-8.236A7.469,7.469,0,0,1,193,157.344a7.684,7.684,0,0,1,7.786-7.787h14.15Zm105,0v3.893H300.4v7.787h19.242v3.893H300.4v11.68h-4.343l-.075-11.68V149.557Zm48.2,0v3.893H358.1v23.36h-4.342V153.45H343.725v-3.893Zm49.019,0v3.893H397.61v7.787h19.242v3.893H397.61v7.786h19.541v3.893H393.193V149.557Zm53.137,0v4.268l-21.712,19.092h21.488v3.893H442.81v-4.268L464.6,153.45H442.81v-3.893Zm52.837,0v4.268l-21.712,19.092H522.9v3.893H495.648v-4.268l21.787-19.092H495.648v-3.893Zm39.211,0,11.68,27.253h-4.343l-1.647-3.893H552.752l-1.572,3.893h-4.417l11.68-27.253Zm-306.316,3.594a10.04,10.04,0,0,0,0,20.065c5.54,0,9.583-4.492,9.583-10.033S261.56,153.151,256.019,153.151Zm304.37,1.5-5.99,14.375h11.979Z" transform="translate(-193 -149.183)" />
</svg>
