<svg xmlns="http://www.w3.org/2000/svg" xmlns:xlink="http://www.w3.org/1999/xlink" width="119.778" height="106.996" viewBox="0 0 119.778 106.996"><defs><style>.a{fill:#61dafb;}.b{filter:url(#a);}</style><filter id="a" x="0" y="0" width="119.778" height="106.996" filterUnits="userSpaceOnUse"><feOffset dy="1" input="SourceAlpha"/><feGaussianBlur stdDeviation="0.5" result="b"/><feFlood flood-color="#404040" flood-opacity="0.161"/><feComposite operator="in" in2="b"/><feComposite in="SourceGraphic"/></filter></defs><g transform="translate(-174.2 -77.5)"><g class="b" transform="matrix(1, 0, 0, 1, 174.2, 77.5)"><path class="a" d="M292.478,130.01c0-7.736-9.688-15.067-24.541-19.614,3.428-15.139,1.9-27.183-4.808-31.039a10.436,10.436,0,0,0-5.332-1.333v5.308a5.512,5.512,0,0,1,2.714.619c3.237,1.857,4.642,8.926,3.547,18.019-.262,2.237-.69,4.594-1.214,7a115.353,115.353,0,0,0-15.115-2.595,116.108,116.108,0,0,0-9.9-11.9c7.76-7.212,15.044-11.164,19.995-11.164V78h0c-6.546,0-15.115,4.665-23.779,12.758C225.377,82.713,216.808,78.1,210.262,78.1V83.4c4.927,0,12.235,3.928,19.995,11.092a112.425,112.425,0,0,0-9.831,11.878,111.155,111.155,0,0,0-15.139,2.618c-.547-2.38-.952-4.689-1.238-6.9-1.119-9.093.262-16.162,3.475-18.043a5.3,5.3,0,0,1,2.737-.619V78.119h0a10.614,10.614,0,0,0-5.38,1.333c-6.689,3.856-8.188,15.877-4.737,30.968C185.34,114.99,175.7,122.3,175.7,130.01c0,7.736,9.688,15.067,24.541,19.614-3.428,15.139-1.9,27.183,4.808,31.039A10.464,10.464,0,0,0,210.405,182c6.546,0,15.115-4.665,23.779-12.758,8.664,8.045,17.233,12.663,23.779,12.663a10.613,10.613,0,0,0,5.38-1.333c6.689-3.856,8.188-15.877,4.737-30.968C282.838,145.053,292.478,137.722,292.478,130.01Zm-30.992-15.877c-.881,3.071-1.976,6.236-3.213,9.4-.976-1.9-2-3.809-3.118-5.713-1.095-1.9-2.261-3.761-3.428-5.57C255.107,112.753,258.368,113.371,261.487,114.133Zm-10.9,25.35c-1.857,3.213-3.761,6.26-5.737,9.093-3.547.309-7.141.476-10.759.476-3.594,0-7.189-.167-10.711-.452q-2.963-4.249-5.76-9.045-2.714-4.677-4.951-9.474c1.476-3.19,3.142-6.379,4.927-9.5,1.857-3.213,3.761-6.26,5.737-9.093,3.547-.309,7.141-.476,10.759-.476,3.594,0,7.189.167,10.711.452q2.963,4.249,5.76,9.045,2.714,4.677,4.951,9.474C254.012,133.176,252.37,136.365,250.585,139.483Zm7.688-3.094c1.285,3.19,2.38,6.379,3.285,9.474-3.118.762-6.4,1.4-9.807,1.9,1.166-1.833,2.333-3.713,3.428-5.641C256.274,140.221,257.3,138.293,258.273,136.389Zm-24.136,25.4a98.126,98.126,0,0,1-6.617-7.617c2.142.1,4.332.167,6.546.167,2.238,0,4.451-.048,6.617-.167A92.9,92.9,0,0,1,234.137,161.787Zm-17.71-14.02c-3.38-.5-6.641-1.119-9.759-1.88.881-3.071,1.976-6.236,3.213-9.4.976,1.9,2,3.809,3.118,5.713S215.261,145.958,216.427,147.767Zm17.59-49.534a98.132,98.132,0,0,1,6.617,7.617c-2.142-.1-4.332-.167-6.546-.167-2.238,0-4.451.048-6.617.167A92.916,92.916,0,0,1,234.018,98.233ZM216.4,112.253c-1.166,1.833-2.333,3.713-3.428,5.641-1.095,1.9-2.118,3.809-3.094,5.713-1.285-3.19-2.38-6.379-3.285-9.474C209.715,113.4,213,112.753,216.4,112.253Zm-21.542,29.8c-8.426-3.594-13.877-8.307-13.877-12.044s5.451-8.474,13.877-12.044c2.047-.881,4.285-1.666,6.593-2.4a114.324,114.324,0,0,0,5.356,14.5,112.711,112.711,0,0,0-5.284,14.425C199.17,143.744,196.932,142.935,194.862,142.054Zm12.806,34.015c-3.237-1.857-4.642-8.926-3.547-18.019.262-2.237.69-4.594,1.214-7a115.355,115.355,0,0,0,15.115,2.595,116.113,116.113,0,0,0,9.9,11.9c-7.76,7.212-15.044,11.164-19.995,11.164A5.681,5.681,0,0,1,207.668,176.069Zm56.461-18.138c1.119,9.093-.262,16.162-3.475,18.043a5.3,5.3,0,0,1-2.737.619c-4.927,0-12.235-3.928-19.995-11.092a112.422,112.422,0,0,0,9.831-11.878A111.155,111.155,0,0,0,262.891,151,66.625,66.625,0,0,1,264.129,157.931Zm9.164-15.877c-2.047.881-4.285,1.666-6.593,2.4a114.329,114.329,0,0,0-5.356-14.5,112.711,112.711,0,0,0,5.284-14.425c2.357.738,4.594,1.547,6.689,2.428,8.426,3.594,13.877,8.307,13.877,12.044C287.17,133.747,281.719,138.484,273.293,142.054Z" transform="translate(-174.2 -77.5)"/></g><path class="a" d="M320.8,78.4Z" transform="translate(-110.562 -0.305)"/><circle class="a" cx="10.878" cy="10.878" r="10.878" transform="translate(223.187 119.132)"/><path class="a" d="M520.5,78.1Z" transform="translate(-262.727 -0.076)"/></g></svg>