<svg width="170" height="103.292" viewBox="0 -10.323 170 92.969" xmlns="http://www.w3.org/2000/svg"><g fill="#000" fill-rule="nonzero"><path d="M23.79.069c-4.142.2-8.05 1.115-11.181 2.616-2.486 1.19-4.196 2.382-5.954 4.15C3.619 9.886 1.97 13.452 1.53 17.92c-.116 1.205-.04 3.883.145 5.094.44 2.892 1.47 5.39 3.07 7.47.638.832 2.128 2.285 2.96 2.898 1.483 1.087 3.502 2.21 5.164 2.856 2.376.937 3.9 1.343 10.267 2.72 4.951 1.074 6.346 1.418 7.966 1.962 3.482 1.17 5.446 2.567 6.38 4.53.371.777.508 1.28.584 2.14.302 3.174-1.518 6.024-4.903 7.676-1.923.943-4.121 1.384-6.868 1.384-2.905 0-5.199-.427-7.369-1.357-3.241-1.383-5.302-3.696-5.885-6.594l-.152-.758H0l.014.413c.027.675.22 2.072.405 2.96.735 3.539 2.397 6.575 4.972 9.087 1.03 1.005 1.62 1.487 2.74 2.251 4.52 3.07 10.35 4.599 17.547 4.599 5.865 0 10.81-1.019 14.882-3.063 2.41-1.212 4.19-2.5 5.81-4.2 2.85-2.994 4.47-6.588 4.93-10.925.138-1.314.104-4.37-.068-5.493-.542-3.6-1.888-6.423-4.12-8.64-2.535-2.512-6.168-4.398-11.126-5.782-1.442-.4-2.156-.565-6.778-1.542-5.728-1.212-6.84-1.5-8.818-2.292-1.696-.675-2.898-1.405-3.784-2.286-1.284-1.28-1.806-2.67-1.724-4.62.082-1.92.687-3.331 2.005-4.708 2.109-2.189 5.44-3.283 9.636-3.153 1.47.042 2.465.18 3.626.496 3.076.847 5.439 2.65 6.661 5.073.44.882.666 1.604.88 2.83l.047.255 6.264-.014 6.263-.02-.02-.552c-.097-2.505-.962-5.562-2.192-7.71-1.84-3.215-4.656-5.872-8.193-7.73C36.302 1.3 32.271.275 27.601.062c-1.669-.076-2.143-.076-3.812.007zM86.353.034c-4.704.31-7.5.875-10.817 2.183-1.785.695-4.305 2.065-5.816 3.16-1.649 1.183-3.826 3.2-4.98 4.598-5.198 6.326-7.67 14.45-7.485 24.576.082 4.213.522 7.559 1.463 10.98 1.188 4.364 3.022 8.034 5.68 11.386.878 1.102 2.918 3.146 4.03 4.034 4.361 3.483 9.58 5.521 15.659 6.127.583.062 1.84.124 2.781.151 4.196.097 7.795-.358 11.393-1.438.838-.255.962-.276 1.03-.186.042.062 1.14 1.521 2.438 3.249L104.092 72h6.174c3.708 0 6.167-.028 6.167-.062s-1.882-2.595-4.19-5.68c-2.3-3.09-4.189-5.644-4.189-5.679 0-.027.24-.254.536-.502 1.236-1.047 2.994-3.022 4.045-4.537 1.662-2.388 3.05-5.26 4.059-8.391 2.342-7.29 2.568-17.286.563-24.955-1.834-7.001-5.515-12.694-10.707-16.542C102.196 2.416 97.053.599 90.99.138c-.976-.076-4.032-.145-4.636-.104zm3.846 10.974c2.788.358 5.199 1.349 7.451 3.05.7.53 2.211 2.044 2.795 2.801 3.207 4.165 4.856 9.823 4.862 16.66.007 6.78-1.6 12.404-4.6 16.108-.248.303-.461.544-.482.544-.02 0-.995-1.26-2.163-2.802l-2.129-2.802-6.201-.02c-4.272-.007-6.195.006-6.195.055 0 .04 1.889 2.588 4.196 5.651 2.3 3.07 4.183 5.597 4.169 5.604-.055.055-.927.248-1.566.344-1.607.241-3.605.2-5.439-.11-3.077-.523-5.762-1.9-8.049-4.117a16.857 16.857 0 01-2.802-3.586c-2.472-4.151-3.592-9.211-3.468-15.613.041-1.962.137-3.256.357-4.73.79-5.19 2.795-9.575 5.769-12.583 2.665-2.692 5.879-4.186 9.718-4.523.872-.076 2.973-.035 3.777.069zM128.245 33.656v32.01l20.864-.013 20.857-.02.02-5.632.014-5.624h-28.432V1.645h-13.323z"/></g></svg>
