<svg xmlns="http://www.w3.org/2000/svg" xmlns:xlink="http://www.w3.org/1999/xlink" width="102" height="102" viewBox="0 0 102 102"><defs><style>.a{fill:rgba(71,88,151,0.5);}.b{fill:#0f4c81;}.c{fill:#7364a8;}.d{fill:#c778bd;}.e{filter:url(#c);}.f{filter:url(#a);}</style><filter id="a" x="12.267" y="12.266" width="77.466" height="77.467" filterUnits="userSpaceOnUse"><feOffset dy="2" input="SourceAlpha"/><feGaussianBlur stdDeviation="1" result="b"/><feFlood flood-color="#404040" flood-opacity="0.161"/><feComposite operator="in" in2="b"/><feComposite in="SourceGraphic"/></filter><filter id="c" x="0" y="0" width="102" height="102" filterUnits="userSpaceOnUse"><feOffset dy="2" input="SourceAlpha"/><feGaussianBlur stdDeviation="1" result="d"/><feFlood flood-color="#404040" flood-opacity="0.161"/><feComposite operator="in" in2="d"/><feComposite in="SourceGraphic"/></filter></defs><g transform="translate(-53 -55)"><g class="f" transform="matrix(1, 0, 0, 1, 53, 55)"><path class="a" d="M142.845,107.108a35.734,35.734,0,1,0,35.733,35.733A35.732,35.732,0,0,0,142.845,107.108Zm28.835,26.119a3.135,3.135,0,0,1-2.964,4.138h-20.9A3.13,3.13,0,0,1,145.1,135.8l-10.448-18.1a3.131,3.131,0,0,1,2.084-4.633A30.409,30.409,0,0,1,171.68,133.227Zm-28.835,9.616-.006,0,.006,0Zm-22.71-20.19a3.125,3.125,0,0,1,5.035.532l10.445,18.091a3.131,3.131,0,0,1,0,3.13L125.17,162.5a3.126,3.126,0,0,1-5.036.531A30.373,30.373,0,0,1,120.135,122.653Zm16.6,49.961a3.131,3.131,0,0,1-2.084-4.633l10.448-18.1a3.129,3.129,0,0,1,2.711-1.565h20.9a3.135,3.135,0,0,1,2.964,4.138A30.407,30.407,0,0,1,136.738,172.615Z" transform="translate(-91.85 -93.84)"/></g><g class="e" transform="matrix(1, 0, 0, 1, 53, 55)"><path class="b" d="M152,106.339V101.66l-8.022-1.112q-.154-1.807-.463-3.566l7.454-3.147-1.211-4.519-8.026,1q-.616-1.7-1.38-3.324l6.385-4.969L144.4,77.973l-7.5,3.048q-1.032-1.475-2.191-2.85l4.887-6.459L136.287,68.4l-6.459,4.887q-1.374-1.156-2.85-2.191l3.048-7.5-4.051-2.339-4.969,6.385q-1.624-.762-3.324-1.38l1-8.026-4.519-1.211-3.147,7.454q-1.758-.31-3.566-.463L106.339,56H101.66l-1.112,8.022q-1.807.154-3.566.463L93.836,57.03l-4.519,1.211,1,8.026q-1.7.616-3.324,1.38l-4.968-6.386L77.974,63.6l3.048,7.5q-1.475,1.032-2.85,2.191L71.713,68.4l-3.308,3.308,4.887,6.459q-1.156,1.374-2.191,2.85l-7.5-3.048-2.339,4.051,6.385,4.969q-.762,1.624-1.38,3.324l-8.026-1L57.03,93.836l7.454,3.147q-.31,1.758-.463,3.566L56,101.661v4.678l8.022,1.112q.154,1.807.463,3.566l-7.454,3.147,1.211,4.519,8.026-1q.616,1.7,1.38,3.324l-6.385,4.969,2.339,4.051,7.5-3.048q1.032,1.475,2.191,2.85l-4.887,6.459,3.308,3.308,6.459-4.887q1.374,1.156,2.85,2.191l-3.048,7.5,4.051,2.339,4.969-6.385q1.624.762,3.324,1.38l-1,8.026,4.519,1.211,3.147-7.454q1.758.31,3.566.463L101.661,152h4.678l1.112-8.022q1.807-.154,3.566-.463l3.147,7.454,4.519-1.211-1-8.026q1.7-.616,3.324-1.38l4.969,6.385,4.051-2.339-3.048-7.5q1.475-1.032,2.85-2.191l6.459,4.887,3.308-3.308-4.887-6.459q1.156-1.374,2.191-2.85l7.5,3.048,2.339-4.051-6.385-4.969q.762-1.624,1.38-3.324l8.026,1,1.211-4.519-7.454-3.147q.31-1.758.463-3.566Zm-48,31.823A34.162,34.162,0,1,1,138.162,104,34.161,34.161,0,0,1,104,138.162Z" transform="translate(-53 -55)"/></g><path class="c" d="M4.932,0A4.932,4.932,0,1,1,0,4.932,4.932,4.932,0,0,1,4.932,0Z" transform="translate(99.068 99.068)"/><circle class="d" cx="2.899" cy="2.899" r="2.899" transform="translate(101.101 101.101)"/></g></svg>