<svg xmlns="http://www.w3.org/2000/svg" width="322.221" height="80" viewBox="0 0 322.221 80"><defs><style>.a{fill:#1a171b;}.b{fill:#fff;}</style></defs><g transform="translate(0 -0.21)"><circle class="a" cx="40" cy="40" r="40" transform="translate(0 0.21)"/><path class="b" d="M55.181,12.22c-4.081.142-7.644,2.392-10.3,5.5a34.7,34.7,0,0,0-6.3,11.59c-2.518-2.064-4.46-4.735-8.5-5.9a10.391,10.391,0,0,0-9.417,1.721,8.445,8.445,0,0,0-2.881,4.2c-1.212,3.94,1.274,7.447,2.4,8.706l2.468,2.645A3.749,3.749,0,0,1,23.8,44.495a4.556,4.556,0,0,1-5.8,2.67c-1.165-.355-2.839-1.223-2.463-2.445a11.3,11.3,0,0,1,.7-1.306,6.128,6.128,0,0,0,.313-.813,3.266,3.266,0,0,0-1.841-4.094,2.739,2.739,0,0,0-3.762,1.9c-.7,2.274.389,6.4,6.218,8.2,6.83,2.1,12.607-1.62,13.427-6.471.516-3.038-.855-5.295-3.368-8.2l-2.048-2.264A3.734,3.734,0,0,1,24.8,26.7c1.083-1.369,2.626-1.953,5.152-1.266,3.688,1,5.332,3.56,8.075,5.624-1.133,3.715-1.873,7.444-2.543,10.787l-.409,2.493c-1.961,10.285-3.458,15.932-7.347,19.174a6.3,6.3,0,0,1-3.592,1.45,1.033,1.033,0,0,1-1.183-.847c-.021-.621.5-.906.85-1.186a2.153,2.153,0,0,0,1.253-2.26,3.41,3.41,0,0,0-3.663-3.253,4.248,4.248,0,0,0-3.939,4.308c.1,2.841,2.743,4.97,6.736,4.835,2.134-.073,6.9-.942,11.6-6.525,5.467-6.4,7-13.737,8.146-19.108l1.284-7.09c.713.085,1.476.142,2.305.162,6.809.144,10.214-3.383,10.265-5.948.033-1.552-1.019-3.08-2.492-3.045a2.842,2.842,0,0,0-2.7,2.19c-.311,1.431,2.166,2.722.23,3.976-1.375.89-3.841,1.518-7.314,1.008l.631-3.49c1.289-6.618,2.878-14.759,8.908-14.957.439-.022,2.048.02,2.085,1.083.011.355-.077.446-.493,1.259a2.883,2.883,0,0,0-.563,1.794,2.825,2.825,0,0,0,3.2,2.733c2.488-.08,3.2-2.5,3.163-3.747-.1-2.923-3.181-4.77-7.26-4.636Z" transform="translate(2.561 2.856)"/><path class="a" d="M224.119,26.216c9.26,0,15.473,6.694,15.473,15.953,0,8.725-6.333,15.952-15.473,15.952-9.2,0-15.536-7.227-15.536-15.952,0-9.26,6.212-15.953,15.536-15.953Zm0,27.37c6.568,0,9.5-5.976,9.5-11.416,0-5.794-3.524-11.41-9.5-11.41-6.037,0-9.562,5.617-9.562,11.41C214.558,47.609,217.485,53.586,224.119,53.586ZM207.813,29.052V26.932h-8.069v-2.9c0-4.122.6-7.232,5.436-7.232.089,0,.184.006.277.01.01,0,.009-.015.02-.015a2.425,2.425,0,0,0,2.535-2.336l.1-1.84a22.842,22.842,0,0,0-3.762-.359c-8.305,0-10.219,4.84-10.219,12.251v2.42h-7.174V29.3a2.543,2.543,0,0,0,2.514,2.169c.007,0,.011.006.02.006h4.64V57.407h3.1a2.545,2.545,0,0,0,2.513-2.2V31.476h5.618a2.54,2.54,0,0,0,2.45-2.424ZM133,26.932c-.01,0-.016.007-.03.007a3.249,3.249,0,0,0-2.83,1.913l-7.73,23.3h-.119l-7.559-23.286a3.243,3.243,0,0,0-2.836-1.925c-.014,0-.019-.007-.03-.007h-3.917l10.338,28.444a16.855,16.855,0,0,1,1.078,3.226c0,.6-1.675,7.527-6.7,7.527-.124,0-.249-.011-.371-.021a2.365,2.365,0,0,0-2.462,2.2l-.154,1.944a18.455,18.455,0,0,0,3.828.418c7.408,0,9.618-6.753,11.711-12.608L136.452,26.93H133Zm-35.706,6.19c-4.639-2.373-9.714-3.984-9.8-8.76.015-5.072,4.674-6.4,8.266-6.4a.234.234,0,0,1,.038,0,18.166,18.166,0,0,1,4.025.421c.016,0,.014-.02.033-.02a2.419,2.419,0,0,0,2.518-2.181l.1-1.842a29.65,29.65,0,0,0-6.956-.881c-7.81.048-13.607,3.977-13.626,11.473.011,6.556,4.429,9.1,9.181,11.4,4.66,2.241,9.765,4.091,9.809,9.5-.028,5.645-5.475,7.726-9.229,7.733a23.143,23.143,0,0,1-6.586-1.188c-1.259-.208-2.291.9-2.454,2.373l-.171,1.643a27.843,27.843,0,0,0,8.437,1.669h.033c8.746-.063,15.545-3.552,15.571-12.608-.014-6.988-4.462-9.923-9.19-12.327Zm84.951,24.285h.007a2.547,2.547,0,0,0,2.481-1.986V37.869c0-6.633-2.806-11.653-10.579-11.653a10.863,10.863,0,0,0-9.437,5.916,9.007,9.007,0,0,0-8.666-5.916c-4.48,0-7.529,1.613-9.676,5.14h-.123v-1.9a2.548,2.548,0,0,0-2.544-2.52c-.01,0-.017-.007-.027-.007H141V57.406h3.048a2.55,2.55,0,0,0,2.549-2.549.246.246,0,0,1,.02-.078V42.052c0-5.676,2.27-11.292,8.006-11.292,4.542,0,5.442,4.718,5.442,8.484V57.407h3.091a2.538,2.538,0,0,0,2.522-2.319V42.052c0-5.676,2.272-11.292,8.007-11.292,4.54,0,5.438,4.718,5.438,8.484V57.407h3.126Zm86.8,0h.01a2.543,2.543,0,0,0,2.537-2.431V39.3c0-8.184-3.528-13.086-11.416-13.086-4.241,0-8.3,2.093-9.977,5.56h-.12V29.5s0,0,0-.007a2.546,2.546,0,0,0-2.548-2.551c-.014,0-.019-.007-.027-.007h-2.861V57.406h3.095a2.538,2.538,0,0,0,2.523-2.346V43.3c0-7.408,2.871-12.546,9.262-12.546,4.9.3,6.451,3.761,6.451,10.873V57.4h3.076Zm30.24-30.474c-.014,0-.017.007-.032.007a3.241,3.241,0,0,0-2.826,1.913l-7.727,23.3h-.126l-7.556-23.286a3.25,3.25,0,0,0-2.839-1.925c-.009,0-.019-.007-.026-.007h-3.917l10.338,28.444a16.889,16.889,0,0,1,1.081,3.226c0,.6-1.677,7.527-6.7,7.527-.126,0-.249-.011-.373-.021a2.368,2.368,0,0,0-2.463,2.2l-.151,1.944a18.452,18.452,0,0,0,3.826.418c7.408,0,9.621-6.753,11.713-12.608L302.736,26.93h-3.458Z" transform="translate(19.485 2.868)"/></g></svg>