<svg xmlns="http://www.w3.org/2000/svg" width="965" height="817.472"><defs><style>.cls-3{fill:#7364a8}</style></defs><g id="Page-1" transform="translate(31 6.794)"><g id="Group-4" transform="translate(-30 -8.323)"><g id="_029-telegram" transform="rotate(90 354.839 558.162)"><path id="Shape" fill="#ffe060" d="M5.629 11.014l2.487 6.368 3.238-3.316 5.552 4.519 3.909-18-20 8.531zM15.1 5.749l-6.12 5.718-.762 2.943-1.409-3.61z"/></g></g><g id="Page-1-2" transform="translate(-1 .207)"><g id="Group-4-2" transform="translate(-30 -9)"><g id="Group-3" transform="translate(0 .471)"><g id="Group-2"><g id="Path_2167"><path id="Path" fill="none" fill-rule="evenodd" d="M482.5 10C748.977 10 965 191.1 965 414.5c0 67.69-19.833 131.5-54.96 187.667C829.458 731.019 668.235 819 482.5 819 216.023 819 0 637.9 0 414.5S216.023 10 482.5 10z"/><g id="_029-telegram-2" transform="rotate(30 202.067 758.706)"><path id="Shape-2" d="M5.629 11.014l2.487 6.368 3.238-3.316 5.552 4.519 3.909-18-20 8.531zM15.1 5.749l-6.12 5.718-.762 2.943-1.409-3.61z" class="cls-3"/></g><path id="Shape-2-2" d="M561.7 15.459a4.037 4.037 0 01.557.039q8.548 1.192 16.994 2.634h.007l.435.074h.023l.1.017.079.014.078.013.1.017.065.011.129.022.039.007 1.723.3a4 4 0 01-1.4 7.877q-9.668-1.7-19.477-3.068a4 4 0 01.547-7.962zm39.1 6.878a4.013 4.013 0 01.823.086q8.14 1.733 16.179 3.7h.006l.156.038.065.016.093.023.1.023.056.014.117.029.024.006q1.354.333 2.7.671a4 4 0 11-1.948 7.759q-9.517-2.389-19.2-4.451a4 4 0 01.829-7.913zm38.509 9.669a4 4 0 011.1.154q8.993 2.61 17.807 5.5l.02.007.137.045.061.02.093.031.08.026.069.023.1.033.043.014.117.038h.006l.586.193a4 4 0 01-2.513 7.6q-9.315-3.082-18.815-5.842a4 4 0 011.113-7.842zM677 44.475a3.992 3.992 0 011.4.253q1.467.547 2.929 1.1h.009l.135.051.017.006.128.049.029.011.122.046.031.009.114.043.091.035.122.047.095.036.061.023.1.037.058.022.11.042.042.016.126.048.031.012q7.207 2.76 14.274 5.706a4 4 0 01-3.1 7.374q-9.051-3.772-18.318-7.228a4 4 0 011.4-7.749zm36.629 15.268a3.985 3.985 0 011.663.364q5.306 2.455 10.526 5.016l.156.077.15.074h.011l.151.074.621.306.027.013.121.06.041.02.111.055.046.023.1.049.056.028.094.046.058.029.088.043.062.031.1.05.05.025.139.074.079.039.067.033.079.039.069.034.085.042.059.029.089.044.057.028.093.047.049.024.1.048.047.023.794.4.015.007.128.064.011.005.129.065.014.007q1.668.837 3.327 1.685a4 4 0 01-3.641 7.124q-8.73-4.462-17.7-8.615a4 4 0 011.682-7.631zm35.33 18.057a3.983 3.983 0 011.952.511q1.885 1.06 3.76 2.135 6.833 3.92 13.489 8.027a4 4 0 01-4.214 6.8q-8.338-5.138-16.946-9.981a4 4 0 011.964-7.487zm33.755 20.83a3.982 3.982 0 012.235.685q3.9 2.633 7.729 5.331l.009.006.121.085h.006l.121.085.01.007.12.085.125.088.5.357.114.081.015.011.1.071.035.025.087.062.047.034.079.056.056.04.077.054.053.037.079.056.057.04.072.052.065.046.065.046.078.055.054.038.083.059.051.036.269.192.13.093.03.022.1.074.036.026.1.072.032.023.1.073.036.025.1.071.035.025.1.069.043.031.1.072.027.02.115.083.019.014.816.588.008.006.13.094.128.092.016.011.121.087.014.01.12.087.016.012.123.089.011.008.128.093.007.005.815.592.015.011.119.087.019.014.114.083.023.017.115.084.017.012.113.083.027.02.109.08.023.017.113.083.022.016.537.393.017.013.116.085.029.021.1.071.053.039.08.059.053.039.075.055.061.045.07.051.065.048.059.044.073.053.06.044.071.053.052.039.079.058.009.007a4 4 0 01-4.754 6.435q-7.877-5.817-16.06-11.342a4 4 0 012.242-7.315zm31.886 23.556a3.983 3.983 0 012.5.882q7.819 6.31 15.3 12.911a4 4 0 01-5.3 5.991q-7.337-6.476-15.013-12.671a4 4 0 012.515-7.113zm29.7 26.229a3.987 3.987 0 012.772 1.117q7.235 6.99 14.076 14.242a4 4 0 01-5.83 5.478q-6.711-7.113-13.8-13.96a4 4 0 012.78-6.877zm27.175 28.817a3.991 3.991 0 013.026 1.381q3.388 3.949 6.658 7.962l.009.011.092.113.011.014.089.11.017.021.084.1.019.024.081.1.024.03.076.094.026.032.074.091.03.037.071.088.028.035.073.09.029.036.07.086.032.04.066.082.037.046.063.078.036.045.064.079.037.046.063.078.037.045.061.075.042.052.058.073.04.049.062.077.038.048.064.079.036.044.059.074.043.054.058.073.04.049.071.089.029.036.1.124.162.2.035.044.062.077.036.045.059.074.041.052.063.078.034.043.063.079.037.047.063.079.035.043.063.079.037.046.068.085.027.033.072.091.027.034.072.091.024.03.075.094.023.029.079.1.014.018.084.1.014.018.085.107.01.013.087.11.01.013q1.158 1.464 2.3 2.937a4 4 0 11-6.319 4.906q-6-7.721-12.4-15.19a4 4 0 013.034-6.6zm73.906 341.038a5.815 5.815 0 011.174.016c2.143.248 3.46 1.643 2.942 3.116q-2.345 6.671-5.237 13.265a4.266 4.266 0 01-3.586 2.084 5.759 5.759 0 01-1.39-.045c-2.11-.331-3.3-1.78-2.664-3.237q2.824-6.443 5.118-12.964c.421-1.205 1.935-2.084 3.643-2.233zm-12.847 28.6a4 4 0 013.677 5.572q-2.841 6.566-5.942 13.023l-.25.519-.077.159-.013.026-.065.134-.019.038-.069.142-.01.021-.077.159-.026.054-.05.1-.035.072-.04.083-.039.081-.037.075-.04.082-.027.056-.1.2-.02.04-.054.111-.018.037-.057.117-.011.023q-.683 1.4-1.378 2.79a4 4 0 11-7.157-3.574q4.375-8.763 8.258-17.732a4 4 0 013.675-2.409zm-17.658 35.387a4 4 0 013.48 5.966q-1.71 3.011-3.475 5.992v.008l-.193.325v.008l-.1.161v.008l-.087.147-.013.021-.091.153-.011.018-.085.142-.01.017-.088.147-.022.036-.071.118-.021.036-.081.136-.029.049-.062.1-.034.057-.069.114-.036.059-.054.09-.059.1-.047.078-.043.072-.043.072-.074.123-.033.056-.051.084-.028.046-.091.15-.028.047-.054.089-.01.016-.112.186-.018.03-.183.3-.013.021-.187.309-.008.013-.192.316v.006l-.194.318-.006.01q-.36.59-.723 1.179v.007l-.2.317v.008l-.188.3-.019.031-.183.3-.017.027-.181.291-.028.044-.083.134-.04.064-.046.075-.042.067-.059.1-.058.094-.038.061-.061.1-.033.053-.077.123-.027.043-.089.143q-1 1.6-2.016 3.189l-.019.03a3.976 3.976 0 01-5.488 1.2 4.024 4.024 0 01-1.233-5.535l1.974-3.122q4.22-6.748 8.137-13.643a4 4 0 013.463-2.031zm-21.3 33.345a4 4 0 013.253 6.324q-1.084 1.52-2.184 3.031l-.009.012-.082.113-.005.008-.088.12-.012.016-.07.1-.026.036-.058.079-.026.035-.073.1-.038.052-.042.057-.042.058-.038.052-.088.12-.015.02-.06.082-.01.014a399.57 399.57 0 01-4.972 6.64l-.2.264-.055.072-.03.039-.05.065-.035.046-.078.1-.04.052-.039.051-.057.074-.027.035-.082.107-.021.028-.072.094-.014.019-.183.238-.007.009q-1.528 1.98-3.083 3.944a4 4 0 11-6.273-4.965q6.1-7.709 11.779-15.666a3.988 3.988 0 013.252-1.677zm-23.559 31.051a2.973 2.973 0 011.968.743 3.019 3.019 0 01.286 4.243l-.028.032-.038.044-.032.037-.038.044-.029.033-.065.074-.011.013-.057.065-.023.026-.059.067-.008.009-.075.086-.072.082-.01.012-.226.258q-4.544 5.189-9.341 10.208a2.982 2.982 0 01-4.232.086 3.019 3.019 0 01-.085-4.253q5.1-5.34 9.918-10.879a2.979 2.979 0 012.254-1.032zm-159.849 116.19a4 4 0 011.655 7.644q-2.691 1.221-5.4 2.413l-.282.124h-.006l-.129.056-.02.009-.121.053-.018.008-.27.118-.03.013-.1.045-.038.016-.1.042-.039.017-.126.055-.04.018-.087.038-.061.027-.071.031-.054.023-.083.036-.05.022-.121.052-.056.024-.069.03-.066.029-.067.029-.061.026-.074.032-.067.029-.106.046-.061.027-.066.029-.073.031-.052.022-.072.031-.063.027-.122.053-.059.025-.079.034-.04.017-.086.037-.04.017-.084.036-.018.008-.174.075-.042.018-.085.037-.037.016-.09.039-.026.011-.288.124-.044.019-.076.033-.052.022-.074.032-.057.025-.149.064-.034.015-.077.033-.053.023-.07.03-.068.042-.076.033-.037.016-.154.066-.046.019-.072.031-.062.026-.068.029-.056.024-.074.032-.065.028-.106.045-.074.031-.065.028-.063.027-.065.028-.064.027-.093.04-.1.041-.047.02-.078.033-.063.027-.07.03-.06.025-.081.034-.068.029-.1.043-.056.024-.075.032-.061.026-.077.032-.049.021-.09.038-.093.039-.072.03-.063.027-.064.027-.066.028-.072.03-.057.024-.113.048-.065.027-.073.031-.057.024-.074.031-.064.027-.062.026-.255.107-.059.025-.069.029-.054.023-.077.032-.049.02-.135.056-.058.024-.074.031-.054.022-.072.03-.059.025-.071.029-.09.038-.09.038-.061.025-.078.032-.053.022-.076.031-.051.021-.076.031-.049.021-.152.063-.036.015-.089.037-.038.016-.084.035-.038.016-.313.13-.108.044-.015.006-.447.185c-.6.248-1.206.5-1.808.742a4 4 0 01-3.015-7.41q9.153-3.736 18.083-7.787a3.984 3.984 0 011.645-.362zm-36.737 15a4 4 0 011.379 7.756l-1.1.4h-.01l-.112.04-.336.121-.02.007-.1.036-.027.01-.1.034-.039.014-.284.1-.052.019-.069.025-.065.023-.072.026-.061.022-.067.024-.1.035-.083.03-.078.028-.059.021-.074.026-.061.022-.088.031-.043.015-.133.048-.027.01-.106.038-.047.017-.088.032-.054.019-.094.033-.036.013-.137.049-.015.005-.123.044-.034.012-.1.036-.041.015-.1.037-.035.012-.132.047-.034.012-.1.036-.052.018-.081.029-.061.022-.074.026-.06.021-.076.027-.107.038-.075.026-.064.023-.064.023-.074.026-.06.021-.073.026-.054.019-.155.054-.039.014-.082.029-.05.018-.084.03-.045.016-.082.029-.044.015-.182.064-.019.007-.095.033-.033.012-.094.033-.032.011-.448.157h-.007q-5.925 2.068-11.941 4.01a4 4 0 01-2.443-7.618q9.415-3.04 18.634-6.4a3.994 3.994 0 011.371-.239zm-37.776 12.2a4 4 0 011.086 7.85q-5.912 1.671-11.893 3.217l-.139.036-.021.006-.585.151-.022.006-.126.032-.022.006-.29.074-.023.006-.119.03-.039.01-.106.027-.035.009-.12.031-.024.006-.286.073-.035.009-.109.028-.039.01-.1.026-.044.011-.113.029-.028.007-.139.035-.041.01-.1.025-.054.014-.088.022-.056.014-.1.025-.035.009-.139.035-.032.008-.113.028-.039.01-.1.026-.041.01-.113.028-.03.007-.292.073h-.01l-.138.035h-.015l-.141.035-.453.113h-.006l-.143.036H620q-1.291.321-2.584.636a4 4 0 01-1.893-7.773q9.613-2.342 19.055-5.011a4 4 0 011.078-.139zm-38.566 9.4a4 4 0 01.822 7.915q-3.857.794-7.734 1.534l-.048.009-.081.015-.062.012-.075.014-.076.014-.063.012-.286.054h-.024l-.124.023-.028.005q-5.518 1.045-11.083 1.984a4 4 0 01-1.331-7.889q9.765-1.647 19.382-3.627a4.025 4.025 0 01.808-.076zm-39.154 6.609a4 4 0 01.521 7.966q-9.868 1.308-19.867 2.279-.2.019-.391.019a4 4 0 01-.382-7.982q9.857-.956 19.589-2.247a4.046 4.046 0 01.527-.035zM518.4 809.89a4 4 0 01.244 7.992q-1.7.106-3.411.2h-.015l-.14.008h-.014l-.137.008h-.018l-.3.017h-.014l-.129.007h-.051l-.091.005h-.4l-.363.019h-.013l-.117.006h-.02l-.111.006h-.034l-.109.006h-.021l-.923.048q-1.809.092-3.619.173l-.122.005h-.026l-.116.005h-.015l-.527.023h-.568l-.316.013h-.718l-.146.006h-.011l-.134.005h-.341l-.132.005h-.022q-3.359.132-6.73.225h-.113a4 4 0 11-.108-8q9.9-.273 19.7-.883a.4.4 0 00.251.101zm-59.57.629h.17q9.806.4 19.713.466a4 4 0 01-.025 8h-.027q-4.55-.03-9.081-.13l-.61-.014h-.352l-.4-.01h-2.042l-.382-.011h-.008l-.178-.005h-.018l-.18-.005h-.01a575.978 575.978 0 01-6.737-.236 4 4 0 01.173-8zm-39.611-2.99a4.06 4.06 0 01.445.025q9.757 1.079 19.636 1.825a4 4 0 01-.3 7.989 2.876 2.876 0 01-.3-.011q-7.512-.567-14.956-1.325l-.137-.014h-.03l-.128-.013h-.049l-.125-.013h-.037l-.165-.017-.122-.013-.071-.007-.106-.011-.071-.007-.113-.012-.055-.006-.164-.017h-.006c-1.2-.125-2.408-.255-3.6-.387a4 4 0 01.452-7.974zm-39.289-5.753a4.028 4.028 0 01.724.066q9.657 1.766 19.457 3.2a4 4 0 11-1.137 7.919 543.437 543.437 0 01-4.847-.731h-.027l-.147-.023-.054-.008-.108-.017-.081-.013-.078-.012-.1-.016-.037-.006q-7.179-1.122-14.283-2.421a4 4 0 01.715-7.935zm-38.773-8.539a4.009 4.009 0 011 .128q9.5 2.456 19.167 4.585a4 4 0 01-1.7 7.816 567.04 567.04 0 01-2.935-.654h-.008l-.155-.035-.067-.015-.094-.021-.09-.02-.064-.015-.111-.025-.04-.009-.122-.028h-.021l-.589-.134h-.007q-4.04-.923-8.052-1.9h-.014l-.134-.033-.028-.007-.127-.031-.033-.008-.126-.031h-.017l-.247-.061-.044-.011-.083-.021-.088-.022-.069-.017-.1-.025-.063-.016-.117-.029-.046-.011-.156-.039h-.009a544.786 544.786 0 01-5.629-1.423 4 4 0 011.019-7.868zm-38.04-11.337a4 4 0 011.284.213q9.293 3.148 18.778 5.975a4 4 0 01-2.266 7.672 544.838 544.838 0 01-6.211-1.891h-.014l-.148-.046-.032-.01-.139-.043-.027-.009-.144-.045-.025-.008-.329-.1-.056-.017-.109-.034-.064-.02-.092-.029-.081-.026-.076-.024-.09-.028-.059-.018-.105-.033-.036-.011-.552-.174-.021-.007-.135-.043-.016-.005-.135-.043-.017-.005q-5.212-1.648-10.366-3.4a4 4 0 011.283-7.79zm-37.085-14.14a3.988 3.988 0 011.564.32q9.025 3.839 18.267 7.363a4 4 0 11-2.849 7.475q-9.384-3.577-18.549-7.476a4 4 0 011.568-7.682zm-28.149-11.621a3.1 3.1 0 011.431.35q6.746 3.5 13.682 6.76a3.094 3.094 0 11-2.635 5.6q-7.069-3.322-13.927-6.881a3.091 3.091 0 011.449-5.829zM34.554 263.892v-.011l.063-.131.006-.013.061-.127.01-.02.058-.121.011-.023.056-.116.014-.03.055-.113.014-.029.053-.109.018-.037.049-.1.02-.041.046-.1.026-.053.042-.086.027-.057.039-.081.032-.065.036-.074.033-.067.034-.071.037-.076.03-.062.038-.079.029-.06.04-.083.027-.056.042-.087.023-.047.049-.1s-2.572 5.354-1.118 2.325zm27.86-45.283a4 4 0 013.344 6.189q-5.369 8.216-10.284 16.664a4 4 0 11-6.923-4.009q1.513-2.6 3.071-5.186v-.008l.076-.126.008-.012.071-.117.015-.025.066-.108.017-.028.063-.1.021-.035.06-.1.022-.036.055-.091.03-.05.048-.08.034-.056.044-.072.041-.067.039-.065.042-.069.036-.06.049-.081.023-.037.061-.1.013-.022q3.164-5.192 6.5-10.3a4 4 0 013.358-1.813zm23.3-32a4 4 0 013.11 6.512q-6.175 7.651-11.932 15.552a4 4 0 11-6.466-4.711q1.1-1.51 2.214-3.01l.01-.013.084-.112.01-.013.082-.11.018-.023.077-.1.023-.031.066-.089.053-.072.041-.055q4.626-6.2 9.5-12.244a3.993 3.993 0 013.109-1.479zm26.322-29.59a4 4 0 012.86 6.8q-6.885 7.04-13.388 14.346a4 4 0 01-5.976-5.318q6.625-7.444 13.644-14.621a3.988 3.988 0 012.859-1.205zM141 129.984a4 4 0 012.6 7.044q-7.5 6.4-14.657 13.074a4 4 0 01-5.458-5.849q3.926-3.663 7.956-7.245l.114-.1h.005l.11-.1.009-.008.106-.094.016-.014.1-.092.011-.01.109-.1 1.045-.923.009-.008.1-.091.017-.015.1-.085.026-.023.089-.078.032-.028.085-.075.038-.033.078-.068.044-.039.079-.069.04-.035.078-.068.045-.04.076-.066.047-.041.072-.063.049-.043.074-.064.049-.043.068-.06.063-.055.06-.052.24-.209.048-.042.076-.067.047-.041.073-.064.054-.047.07-.061.052-.046.067-.058.057-.05.069-.06.049-.042.075-.065.046-.04.081-.07.041-.035.08-.069.044-.038.083-.072.038-.033.089-.077.033-.028.1-.086.022-.019.1-.089.021-.019.751-.647.006-.005.118-.1.013-.011.109-.094.024-.02.1-.09.015-.013.111-.1.015-.013.112-.1.012-.01.113-.1.013-.011.645-.551a3.984 3.984 0 012.604-.949zm31.252-24.384a4 4 0 012.327 7.256q-8.033 5.732-15.755 11.756a4 4 0 11-4.931-6.3l1.25-.972.122-.094.041-.032.085-.065.061-.047.064-.05.067-.052.059-.045.079-.061.044-.034.084-.065.04-.031.095-.073.022-.017.1-.079.019-.015q6.782-5.225 13.8-10.233a3.981 3.981 0 012.327-.747zm33.214-21.673a4 4 0 012.05 7.438q-8.487 5.053-16.694 10.407a4 4 0 11-4.371-6.7q2.6-1.7 5.239-3.369l.011-.007.125-.079.627-.4.038-.024.087-.055.05-.032.076-.048.071-.045.061-.039.077-.048.062-.039.082-.052.056-.035.084-.053.054-.034.1-.064.034-.022.12-.076.019-.012.576-.361.143-.089.147-.089h.008a490.075 490.075 0 013.2-1.982h.007l.138-.085h.008l.137-.084h.008l.574-.351.052-.032.089-.055.058-.035.079-.048.07-.042.069-.042.076-.046.058-.036.085-.052.052-.032.092-.056.033-.02.112-.068q2.006-1.22 4.027-2.424a3.981 3.981 0 012.044-.582zm34.876-18.916a4 4 0 011.769 7.59q-8.868 4.365-17.487 9.038a4 4 0 01-3.83-7.024q2.65-1.437 5.324-2.846l.615-.323.145-.076.024-.013.119-.063.049-.026.1-.05.06-.031.08-.042.075-.039.068-.036.081-.042.054-.028.1-.049.035-.019.656-.342h.01l.129-.067h.01q4.987-2.593 10.053-5.087a3.984 3.984 0 011.766-.418zM276.6 48.88a4 4 0 011.486 7.715q-9.181 3.67-18.142 7.656a4 4 0 01-3.263-7.3q9.107-4.05 18.451-7.786a3.988 3.988 0 011.468-.285zm37.389-13.333a4 4 0 011.2 7.816q-9.436 2.973-18.679 6.269a4 4 0 11-2.69-7.532q2.345-.836 4.7-1.652l.145-.05.145-.05.575-.2h.014l.106-.037.058-.02.084-.029.081-.028.08-.027.077-.026.082-.028.079-.027.081-.028.137-.047.016-.005.162-.055.037-.013.13-.045.032-.011.131-.045.036-.012.139-.047.022-.007.151-.052h.013c1.363-.464 2.723-.92 4.092-1.374l.165-.055h.008l.164-.054h.006l.679-.224h.013l.15-.049.026-.008.138-.045.033-.011.142-.047.021-.007.161-.053h.006l.33-.108.045-.015.12-.039.051-.016.106-.035.064-.021.1-.033.059-.019.108-.035.054-.018.132-.043.052-.017.132-.043.094-.03.065-.021.091-.03.068-.022.1-.031.058-.019.1-.032.054-.017.11-.036.024-.008.722-.233h.006q1.491-.479 2.986-.95a4 4 0 011.217-.214zm38.278-10.53a4 4 0 01.916 7.894q-9.629 2.275-19.09 4.878a4 4 0 11-2.122-7.714q4.8-1.32 9.64-2.557l1.207-.307h.006q3.026-.766 6.068-1.5h.01l.148-.036.754-.181h.012l.138-.033h.021l.132-.032.03-.007.575-.137h.019l.116-.027.052-.012.1-.024.066-.016.1-.023.078-.018.084-.02h.016a4.009 4.009 0 01.92-.129zm38.947-7.734a4 4 0 01.634 7.949q-9.775 1.581-19.4 3.494a4 4 0 11-1.558-7.847q3.738-.742 7.5-1.436l.919-.169.149-.027h.011l.744-.135h.03l.125-.023.04-.007.125-.023h.024l.426-.077H381l.122-.022.044-.008.118-.021.045-.008.122-.022h.028l.575-.1.029-.005.129-.023.032-.006.132-.023h.021l.581-.1.022-.034.12-.021.05-.009.118-.021.033-.006.132-.023.455-.079h.006l.134-.023.033-.006.13-.023h.027l.133-.023h.017l.582-.1.036-.006.132-.023h.018l.75-.128h.018l.14-.024h.017l.142-.024h.012l.605-.1h.006l.147-.025H387q1.774-.3 3.553-.586a4.03 4.03 0 01.653-.078z" class="cls-3"/></g><g id="_029-telegram-2-2" transform="rotate(161 54.724 396.4)"><path id="Shape-3" d="M5.629 7.986l2.487-6.368 3.238 3.316L16.906.415l3.909 18-20-8.531zm9.471 5.265L8.98 7.533 8.218 4.59 6.809 8.2z" class="cls-3"/></g></g><g id="_029-telegram-3" transform="rotate(90 97.338 759.662)"><path id="Shape-4" d="M5.629 7.986l2.487-6.368 3.238 3.316L16.906.415l3.909 18-20-8.531zm9.471 5.265L8.98 7.533 8.218 4.59 6.809 8.2z" class="cls-3"/></g></g><g id="_029-telegram-4" transform="rotate(90 355.103 558.897)"><path id="Shape-5" d="M5.629 11.014l2.487 6.368 3.238-3.316 5.552 4.519 3.909-18-20 8.531zM15.1 5.749l-6.12 5.718-.762 2.943-1.409-3.61z" class="cls-3"/></g></g></g></g></svg>