<?xml version="1.0" standalone="no"?>
<!DOCTYPE svg PUBLIC "-//W3C//DTD SVG 20010904//EN"
 "http://www.w3.org/TR/2001/REC-SVG-20010904/DTD/svg10.dtd">
<svg version="1.0" xmlns="http://www.w3.org/2000/svg"
 width="700.000000pt" height="700.000000pt" viewBox="0 0 700.000000 700.000000"
 preserveAspectRatio="xMidYMid meet">
<metadata>
Created by potrace 1.11, written by Peter Selinger 2001-2013
</metadata>
<g transform="translate(0.000000,700.000000) scale(0.100000,-0.100000)"
fill="#000000" stroke="none">
<path d="M335 6986 c-160 -39 -288 -167 -324 -327 -7 -29 -11 -1094 -11 -3159
0 -3344 -3 -3157 49 -3262 52 -107 176 -201 299 -227 76 -16 6229 -16 6304 0
170 36 305 175 338 344 8 44 10 884 8 3185 l-3 3125 -23 55 c-50 117 -145 210
-259 253 l-58 22 -3135 2 c-2450 1 -3146 -1 -3185 -11z m5135 -1166 l0 -390
-1447 -2 -1448 -3 -70 -24 c-314 -106 -513 -344 -555 -664 -49 -370 197 -730
575 -843 55 -16 143 -18 1090 -24 1013 -6 1032 -7 1127 -28 606 -137 1040
-576 1169 -1182 31 -142 33 -471 5 -625 -107 -590 -530 -1061 -1101 -1227
-207 -60 -136 -58 -1972 -58 l-1683 0 0 390 0 390 1613 0 c1400 0 1621 2 1677
15 330 77 566 336 611 671 21 158 -19 345 -102 487 -81 137 -242 277 -376 327
-154 57 -82 54 -1198 60 l-1030 6 -115 28 c-290 71 -530 204 -730 405 -335
337 -485 790 -429 1299 53 493 331 924 760 1177 100 59 249 121 370 155 179
49 156 48 1757 49 l1502 1 0 -390z"/>
</g>
</svg>
