<svg xmlns="http://www.w3.org/2000/svg" width="548.36" height="548.36" viewBox="0 0 548.358 548.358"><path fill="currentColor" d="M545.45 400.3c-.66-1.43-1.28-2.62-1.86-3.57-9.52-17.14-27.7-38.17-54.54-63.1l-.57-.57-.3-.28-.28-.3h-.28c-12.18-11.6-19.9-19.4-23.13-23.4-5.9-7.62-7.22-15.33-4-23.14 2.3-5.9 10.86-18.36 25.7-37.4 7.8-10.08 14-18.17 18.56-24.26 32.93-43.78 47.2-71.76 42.83-83.94l-1.7-2.85c-1.16-1.72-4.1-3.3-8.86-4.72s-10.85-1.66-18.28-.7l-82.22.56c-1.33-.47-3.23-.43-5.7.14l-3.73.86-1.42.72-1.13.86c-.95.56-2 1.56-3.14 3-1.13 1.4-2.08 3.08-2.84 5-8.95 23.02-19.13 44.43-30.56 64.22-7.04 11.8-13.5 22.04-19.4 30.7-5.9 8.66-10.86 15.03-14.86 19.12-4 4.1-7.6 7.38-10.85 9.85-3.24 2.5-5.72 3.54-7.43 3.15-1.7-.38-3.33-.76-4.86-1.14-2.65-1.7-4.8-4.03-6.4-6.98-1.63-2.95-2.72-6.67-3.3-11.14-.56-4.48-.9-8.33-1-11.56-.08-3.24-.04-7.8.15-13.7.2-5.9.3-9.9.3-12 0-7.23.13-15.08.4-23.55.3-8.47.54-15.2.73-20.13.2-4.95.28-10.18.28-15.7s-.33-9.85-1-13c-.65-3.13-1.66-6.18-3-9.13-1.32-2.94-3.27-5.22-5.84-6.84s-5.76-2.9-9.56-3.86c-10.1-2.28-22.94-3.52-38.55-3.7-35.4-.4-58.14 1.9-68.23 6.84-4 2.1-7.6 4.95-10.84 8.57-3.43 4.2-3.9 6.48-1.43 6.86 11.42 1.7 19.5 5.8 24.26 12.27l1.72 3.43c1.33 2.48 2.66 6.86 4 13.14 1.33 6.28 2.2 13.22 2.56 20.83.95 13.9.95 25.8 0 35.7-.95 9.9-1.85 17.6-2.7 23.12-.87 5.52-2.15 10-3.86 13.42-1.72 3.42-2.86 5.52-3.43 6.28-.57.76-1.05 1.24-1.43 1.42-2.47.95-5.04 1.43-7.7 1.43-2.67 0-5.9-1.33-9.7-4-3.82-2.66-7.77-6.32-11.86-11-4.1-4.65-8.7-11.17-13.85-19.55-5.13-8.37-10.46-18.27-15.98-29.7l-4.56-8.27c-2.86-5.33-6.76-13.08-11.7-23.27-4.96-10.17-9.34-20.02-13.14-29.54-1.52-4-3.8-7.04-6.85-9.13l-1.43-.86c-.95-.76-2.48-1.57-4.57-2.43-2.1-.86-4.28-1.47-6.57-1.85l-78.22.55c-8 0-13.42 1.82-16.28 5.43l-1.14 1.7c-.57.97-.86 2.5-.86 4.58 0 2.1.57 4.67 1.7 7.7 11.43 26.85 23.85 52.73 37.27 77.67 13.42 24.93 25.08 45.02 34.97 60.24 9.9 15.23 20 29.6 30.27 43.1 10.3 13.52 17.1 22.18 20.42 26 3.33 3.8 5.95 6.65 7.85 8.55l7.14 6.86c4.58 4.56 11.3 10.04 20.14 16.4 8.85 6.4 18.65 12.67 29.4 18.86 10.76 6.18 23.28 11.23 37.55 15.13 14.27 3.9 28.16 5.47 41.68 4.7h32.83c6.67-.56 11.72-2.66 15.15-6.27l1.13-1.43c.77-1.14 1.48-2.9 2.14-5.28.67-2.4 1-5 1-7.86-.2-8.18.43-15.56 1.85-22.12 1.43-6.57 3.05-11.5 4.86-14.85 1.8-3.33 3.86-6.14 6.14-8.42 2.28-2.28 3.9-3.66 4.86-4.14.95-.47 1.7-.8 2.28-1 4.57-1.5 9.95-.04 16.14 4.44 6.2 4.47 12 10 17.42 16.56 5.42 6.57 11.94 13.94 19.55 22.13 7.63 8.18 14.3 14.27 20 18.27l5.7 3.43c3.82 2.28 8.77 4.38 14.86 6.28 6.08 1.9 11.4 2.4 15.98 1.44l73.1-1.14c7.22 0 12.85-1.2 16.84-3.58 4-2.37 6.37-5 7.13-7.85.78-2.85.82-6.1.16-9.7-.68-3.62-1.35-6.14-2-7.57z"/></svg>
